# MagicaVoxel @ Ephtracy

# group
o 

# material
mtllib dirt block.mtl
usemtl palette

# normals
vn -1 0 0
vn 1 0 0
vn 0 0 1
vn 0 0 -1
vn 0 -1 0
vn 0 1 0

# texcoords
vt 0.962891 0.5
vt 0.990234 0.5
vt 0.994141 0.5

# verts
v -0.5 0 0.5
v -0.5 0 -0.5
v -0.5 0.2 0.4
v -0.5 0.2 0.3
v -0.5 0.3 0.4
v -0.5 0.3 0.3
v -0.5 0.4 0
v -0.5 0.4 -0.3
v -0.5 0.5 0
v -0.5 0.5 -0.3
v -0.5 0.6 0.2
v -0.5 0.6 0.1
v -0.5 0.7 0.2
v -0.5 0.7 0.1
v -0.5 0.7 -0.3
v -0.5 0.8 0.1
v -0.5 0.8 -0.3
v -0.5 1 0.5
v -0.5 1 -0.5
v -0.4 1 -0.2
v -0.4 1 -0.3
v -0.4 1.1 -0.2
v -0.4 1.1 -0.3
v -0.3 0.4 0
v -0.3 0.4 -0.3
v -0.3 0.7 0
v -0.3 0.7 -0.3
v -0.3 0.9 0.4
v -0.3 0.9 0.3
v -0.3 1 0.4
v -0.3 1 0.3
v -0.3 1 0.2
v -0.3 1.1 0.3
v -0.3 1.1 0.2
v -0.1 0.9 0.2
v -0.1 0.9 0.1
v -0.1 0.9 -0.3
v -0.1 0.9 -0.4
v -0.1 1 0.2
v -0.1 1 0.1
v -0.1 1 0
v -0.1 1 -0.1
v -0.1 1 -0.3
v -0.1 1 -0.4
v -0.1 1.1 0
v -0.1 1.1 -0.1
v 0 1 0.4
v 0 1 0.3
v 0 1.1 0.4
v 0 1.1 0.3
v 0.1 0.3 0.4
v 0.1 0.3 0.3
v 0.1 0.6 0.4
v 0.1 0.6 0.3
v 0.1 1 -0.2
v 0.1 1 -0.3
v 0.1 1.1 -0.2
v 0.1 1.1 -0.3
v 0.3 0.9 0.3
v 0.3 0.9 0.2
v 0.3 1 0.4
v 0.3 1 0.3
v 0.3 1 0.2
v 0.3 1 0.1
v 0.3 1 0
v 0.3 1.1 0.4
v 0.3 1.1 0.3
v 0.3 1.1 0.1
v 0.3 1.1 0
v 0.4 0.9 -0.2
v 0.4 0.9 -0.3
v 0.4 1 -0.2
v 0.4 1 -0.3
v -0.4 0.4 0
v -0.4 0.4 -0.3
v -0.4 0.5 0
v -0.4 0.5 -0.3
v -0.4 0.7 0
v -0.4 0.7 -0.3
v -0.4 0.9 0.4
v -0.4 0.9 0.3
v -0.4 1 0.4
v -0.4 1 0.3
v -0.3 1 -0.2
v -0.3 1 -0.3
v -0.3 1.1 -0.2
v -0.3 1.1 -0.3
v -0.2 0.3 0.4
v -0.2 0.3 0.3
v -0.2 0.6 0.4
v -0.2 0.6 0.3
v -0.2 0.9 0.2
v -0.2 0.9 0.1
v -0.2 0.9 -0.3
v -0.2 0.9 -0.4
v -0.2 1 0.3
v -0.2 1 0.2
v -0.2 1 0.1
v -0.2 1 -0.3
v -0.2 1 -0.4
v -0.2 1.1 0.3
v -0.2 1.1 0.2
v 0 1 0
v 0 1 -0.1
v 0 1.1 0
v 0 1.1 -0.1
v 0.1 1 0.4
v 0.1 1 0.3
v 0.1 1.1 0.4
v 0.1 1.1 0.3
v 0.2 0.9 0.3
v 0.2 0.9 0.2
v 0.2 1 0.3
v 0.2 1 0.2
v 0.2 1 -0.2
v 0.2 1 -0.3
v 0.2 1.1 -0.2
v 0.2 1.1 -0.3
v 0.3 0.9 -0.2
v 0.3 0.9 -0.3
v 0.3 1 -0.2
v 0.3 1 -0.3
v 0.4 1 0.4
v 0.4 1 0.3
v 0.4 1 0.1
v 0.4 1 0
v 0.4 1.1 0.4
v 0.4 1.1 0.3
v 0.4 1.1 0.1
v 0.4 1.1 0
v 0.5 0 0.5
v 0.5 0 -0.5
v 0.5 0.1 0.2
v 0.5 0.1 -0.1
v 0.5 0.2 0.3
v 0.5 0.2 0.2
v 0.5 0.2 0.1
v 0.5 0.2 0
v 0.5 0.3 0.3
v 0.5 0.3 0.1
v 0.5 0.3 0
v 0.5 0.3 -0.1
v 0.5 0.6 0.3
v 0.5 0.6 -0.2
v 0.5 0.7 0.2
v 0.5 0.7 -0.2
v 0.5 0.8 0.3
v 0.5 0.8 0.2
v 0.5 0.9 -0.1
v 0.5 0.9 -0.2
v 0.5 1 0.5
v 0.5 1 -0.1
v 0.5 1 -0.2
v 0.5 1 -0.5
v -0.5 0 0.5
v -0.5 1 0.5
v -0.1 0.9 0.5
v -0.1 1 0.5
v 0 0.9 0.5
v 0 1 0.5
v 0.2 0.9 0.5
v 0.2 1 0.5
v 0.3 0.9 0.5
v 0.3 1 0.5
v 0.5 0 0.5
v 0.5 1 0.5
v 0 1 0.4
v 0 1.1 0.4
v 0.1 1 0.4
v 0.1 1.1 0.4
v 0.3 1 0.4
v 0.3 1.1 0.4
v 0.4 1 0.4
v 0.4 1.1 0.4
v -0.4 0.9 0.3
v -0.4 1 0.3
v -0.3 0.9 0.3
v -0.3 1 0.3
v -0.3 1.1 0.3
v -0.2 0.3 0.3
v -0.2 0.6 0.3
v -0.2 1 0.3
v -0.2 1.1 0.3
v 0.1 0.3 0.3
v 0.1 0.6 0.3
v 0.2 0.9 0.2
v 0.2 1 0.2
v 0.3 0.9 0.2
v 0.3 1 0.2
v -0.2 0.9 0.1
v -0.2 1 0.1
v -0.1 0.9 0.1
v -0.1 1 0.1
v 0.3 1 0.1
v 0.3 1.1 0.1
v 0.4 1 0.1
v 0.4 1.1 0.1
v -0.1 1 0
v -0.1 1.1 0
v 0 1 0
v 0 1.1 0
v -0.4 1 -0.2
v -0.4 1.1 -0.2
v -0.3 1 -0.2
v -0.3 1.1 -0.2
v 0.1 1 -0.2
v 0.1 1.1 -0.2
v 0.2 1 -0.2
v 0.2 1.1 -0.2
v -0.4 0.4 -0.3
v -0.4 0.5 -0.3
v -0.4 0.7 -0.3
v -0.3 0.4 -0.3
v -0.3 0.7 -0.3
v 0.3 0.9 -0.3
v 0.3 1 -0.3
v 0.4 0.9 -0.3
v 0.4 1 -0.3
v -0.2 0.9 -0.4
v -0.2 1 -0.4
v -0.1 0.9 -0.4
v -0.1 1 -0.4
v -0.4 0.9 0.4
v -0.4 1 0.4
v -0.3 0.9 0.4
v -0.3 1 0.4
v -0.2 0.3 0.4
v -0.2 0.6 0.4
v 0.1 0.3 0.4
v 0.1 0.6 0.4
v 0 1 0.3
v 0 1.1 0.3
v 0.1 1 0.3
v 0.1 1.1 0.3
v 0.2 0.9 0.3
v 0.2 1 0.3
v 0.3 0.9 0.3
v 0.3 1 0.3
v 0.3 1.1 0.3
v 0.4 1 0.3
v 0.4 1.1 0.3
v -0.3 1 0.2
v -0.3 1.1 0.2
v -0.2 0.9 0.2
v -0.2 1 0.2
v -0.2 1.1 0.2
v -0.1 0.9 0.2
v -0.1 1 0.2
v -0.4 0.4 0
v -0.4 0.5 0
v -0.4 0.7 0
v -0.3 0.4 0
v -0.3 0.7 0
v 0.3 1 0
v 0.3 1.1 0
v 0.4 1 0
v 0.4 1.1 0
v -0.1 1 -0.1
v -0.1 1.1 -0.1
v 0 1 -0.1
v 0 1.1 -0.1
v 0.3 0.9 -0.2
v 0.3 1 -0.2
v 0.4 0.9 -0.2
v 0.4 1 -0.2
v -0.4 1 -0.3
v -0.4 1.1 -0.3
v -0.3 1 -0.3
v -0.3 1.1 -0.3
v -0.2 0.9 -0.3
v -0.2 1 -0.3
v -0.1 0.9 -0.3
v -0.1 1 -0.3
v 0.1 1 -0.3
v 0.1 1.1 -0.3
v 0.2 1 -0.3
v 0.2 1.1 -0.3
v -0.5 0 -0.5
v -0.5 1 -0.5
v -0.3 0.3 -0.5
v -0.3 0.4 -0.5
v -0.3 0.5 -0.5
v -0.3 0.7 -0.5
v -0.2 0.6 -0.5
v -0.2 0.7 -0.5
v -0.1 0.7 -0.5
v -0.1 0.8 -0.5
v 0.1 0.5 -0.5
v 0.1 0.6 -0.5
v 0.3 0.3 -0.5
v 0.3 0.4 -0.5
v 0.3 0.7 -0.5
v 0.3 0.8 -0.5
v 0.5 0 -0.5
v 0.5 1 -0.5
v -0.5 0 0.5
v 0.5 0 0.5
v -0.5 0 -0.5
v 0.5 0 -0.5
v -0.2 0.6 0.4
v 0.1 0.6 0.4
v -0.2 0.6 0.3
v 0.1 0.6 0.3
v -0.4 0.7 0
v -0.3 0.7 0
v -0.4 0.7 -0.3
v -0.3 0.7 -0.3
v -0.2 0.3 0.4
v 0.1 0.3 0.4
v -0.2 0.3 0.3
v 0.1 0.3 0.3
v -0.4 0.4 0
v -0.3 0.4 0
v -0.4 0.4 -0.3
v -0.3 0.4 -0.3
v -0.4 0.9 0.4
v -0.3 0.9 0.4
v -0.4 0.9 0.3
v -0.3 0.9 0.3
v 0.2 0.9 0.3
v 0.3 0.9 0.3
v -0.2 0.9 0.2
v -0.1 0.9 0.2
v 0.2 0.9 0.2
v 0.3 0.9 0.2
v -0.2 0.9 0.1
v -0.1 0.9 0.1
v 0.3 0.9 -0.2
v 0.4 0.9 -0.2
v -0.2 0.9 -0.3
v -0.1 0.9 -0.3
v 0.3 0.9 -0.3
v 0.4 0.9 -0.3
v -0.2 0.9 -0.4
v -0.1 0.9 -0.4
v -0.5 1 0.5
v -0.1 1 0.5
v 0 1 0.5
v 0.2 1 0.5
v 0.3 1 0.5
v 0.5 1 0.5
v -0.4 1 0.4
v -0.3 1 0.4
v -0.1 1 0.4
v 0 1 0.4
v 0.1 1 0.4
v 0.2 1 0.4
v 0.3 1 0.4
v 0.4 1 0.4
v -0.4 1 0.3
v -0.3 1 0.3
v -0.2 1 0.3
v 0 1 0.3
v 0.1 1 0.3
v 0.2 1 0.3
v 0.3 1 0.3
v 0.4 1 0.3
v -0.3 1 0.2
v -0.2 1 0.2
v -0.1 1 0.2
v 0.1 1 0.2
v 0.2 1 0.2
v 0.3 1 0.2
v -0.3 1 0.1
v -0.2 1 0.1
v -0.1 1 0.1
v 0.2 1 0.1
v 0.3 1 0.1
v 0.4 1 0.1
v -0.1 1 0
v 0 1 0
v 0.1 1 0
v 0.2 1 0
v 0.3 1 0
v 0.4 1 0
v -0.2 1 -0.1
v -0.1 1 -0.1
v 0 1 -0.1
v 0.3 1 -0.1
v 0.5 1 -0.1
v -0.4 1 -0.2
v -0.3 1 -0.2
v -0.2 1 -0.2
v 0.1 1 -0.2
v 0.2 1 -0.2
v 0.3 1 -0.2
v 0.4 1 -0.2
v 0.5 1 -0.2
v -0.4 1 -0.3
v -0.3 1 -0.3
v -0.2 1 -0.3
v -0.1 1 -0.3
v 0.1 1 -0.3
v 0.2 1 -0.3
v 0.3 1 -0.3
v 0.4 1 -0.3
v -0.2 1 -0.4
v -0.1 1 -0.4
v -0.5 1 -0.5
v 0.5 1 -0.5
v 0 1.1 0.4
v 0.1 1.1 0.4
v 0.3 1.1 0.4
v 0.4 1.1 0.4
v -0.3 1.1 0.3
v -0.2 1.1 0.3
v 0 1.1 0.3
v 0.1 1.1 0.3
v 0.3 1.1 0.3
v 0.4 1.1 0.3
v -0.3 1.1 0.2
v -0.2 1.1 0.2
v 0.3 1.1 0.1
v 0.4 1.1 0.1
v -0.1 1.1 0
v 0 1.1 0
v 0.3 1.1 0
v 0.4 1.1 0
v -0.1 1.1 -0.1
v 0 1.1 -0.1
v -0.4 1.1 -0.2
v -0.3 1.1 -0.2
v 0.1 1.1 -0.2
v 0.2 1.1 -0.2
v -0.4 1.1 -0.3
v -0.3 1.1 -0.3
v 0.1 1.1 -0.3
v 0.2 1.1 -0.3

# faces
f 3/3/1 2/3/1 1/3/1
f 4/3/1 2/3/1 3/3/1
f 5/3/1 3/3/1 1/3/1
f 5/1/1 4/1/1 3/1/1
f 6/3/1 2/3/1 4/3/1
f 6/1/1 4/1/1 5/1/1
f 7/3/1 6/3/1 5/3/1
f 7/3/1 2/3/1 6/3/1
f 8/3/1 2/3/1 7/3/1
f 9/3/1 7/3/1 5/3/1
f 9/1/1 8/1/1 7/1/1
f 10/3/1 2/3/1 8/3/1
f 10/1/1 8/1/1 9/1/1
f 11/3/1 9/3/1 5/3/1
f 11/3/1 10/3/1 9/3/1
f 12/3/1 10/3/1 11/3/1
f 13/3/1 11/3/1 5/3/1
f 13/1/1 12/1/1 11/1/1
f 14/3/1 10/3/1 12/3/1
f 14/1/1 12/1/1 13/1/1
f 15/3/1 2/3/1 10/3/1
f 15/3/1 10/3/1 14/3/1
f 16/3/1 14/3/1 13/3/1
f 16/1/1 15/1/1 14/1/1
f 17/3/1 2/3/1 15/3/1
f 17/1/1 15/1/1 16/1/1
f 18/3/1 5/3/1 1/3/1
f 18/3/1 16/3/1 13/3/1
f 18/3/1 17/3/1 16/3/1
f 18/3/1 13/3/1 5/3/1
f 19/3/1 2/3/1 17/3/1
f 19/3/1 17/3/1 18/3/1
f 22/2/1 21/2/1 20/2/1
f 23/2/1 21/2/1 22/2/1
f 26/3/1 25/3/1 24/3/1
f 27/3/1 25/3/1 26/3/1
f 30/3/1 29/3/1 28/3/1
f 31/3/1 29/3/1 30/3/1
f 33/2/1 32/2/1 31/2/1
f 34/2/1 32/2/1 33/2/1
f 39/3/1 36/3/1 35/3/1
f 40/3/1 36/3/1 39/3/1
f 43/3/1 38/3/1 37/3/1
f 44/3/1 38/3/1 43/3/1
f 45/2/1 42/2/1 41/2/1
f 46/2/1 42/2/1 45/2/1
f 49/2/1 48/2/1 47/2/1
f 50/2/1 48/2/1 49/2/1
f 53/3/1 52/3/1 51/3/1
f 54/3/1 52/3/1 53/3/1
f 57/2/1 56/2/1 55/2/1
f 58/2/1 56/2/1 57/2/1
f 62/3/1 60/3/1 59/3/1
f 63/3/1 60/3/1 62/3/1
f 66/2/1 62/2/1 61/2/1
f 67/2/1 62/2/1 66/2/1
f 68/2/1 65/2/1 64/2/1
f 69/2/1 65/2/1 68/2/1
f 72/3/1 71/3/1 70/3/1
f 73/3/1 71/3/1 72/3/1
f 74/1/2 75/1/2 76/1/2
f 76/1/2 75/1/2 77/1/2
f 76/3/2 77/3/2 78/3/2
f 78/3/2 77/3/2 79/3/2
f 80/3/2 81/3/2 82/3/2
f 82/3/2 81/3/2 83/3/2
f 84/2/2 85/2/2 86/2/2
f 86/2/2 85/2/2 87/2/2
f 88/3/2 89/3/2 90/3/2
f 90/3/2 89/3/2 91/3/2
f 92/3/2 93/3/2 97/3/2
f 97/3/2 93/3/2 98/3/2
f 94/3/2 95/3/2 99/3/2
f 99/3/2 95/3/2 100/3/2
f 96/2/2 97/2/2 101/2/2
f 101/2/2 97/2/2 102/2/2
f 103/2/2 104/2/2 105/2/2
f 105/2/2 104/2/2 106/2/2
f 107/2/2 108/2/2 109/2/2
f 109/2/2 108/2/2 110/2/2
f 111/3/2 112/3/2 113/3/2
f 113/3/2 112/3/2 114/3/2
f 115/2/2 116/2/2 117/2/2
f 117/2/2 116/2/2 118/2/2
f 119/3/2 120/3/2 121/3/2
f 121/3/2 120/3/2 122/3/2
f 123/2/2 124/2/2 127/2/2
f 127/2/2 124/2/2 128/2/2
f 125/2/2 126/2/2 129/2/2
f 129/2/2 126/2/2 130/2/2
f 131/3/2 132/3/2 133/3/2
f 133/3/2 132/3/2 134/3/2
f 131/3/2 133/3/2 135/3/2
f 133/1/2 134/1/2 136/1/2
f 135/3/2 133/3/2 136/3/2
f 136/1/2 134/1/2 137/1/2
f 137/1/2 134/1/2 138/1/2
f 131/3/2 135/3/2 139/3/2
f 135/1/2 136/1/2 139/1/2
f 136/1/2 137/1/2 139/1/2
f 137/3/2 138/3/2 140/3/2
f 139/1/2 137/1/2 140/1/2
f 138/1/2 134/1/2 141/1/2
f 140/3/2 138/3/2 141/3/2
f 134/3/2 132/3/2 142/3/2
f 141/1/2 134/1/2 142/1/2
f 140/3/2 141/3/2 143/3/2
f 139/3/2 140/3/2 143/3/2
f 141/3/2 142/3/2 143/3/2
f 131/3/2 139/3/2 143/3/2
f 142/3/2 132/3/2 144/3/2
f 143/3/2 142/3/2 144/3/2
f 143/1/2 144/1/2 145/1/2
f 144/3/2 132/3/2 146/3/2
f 145/1/2 144/1/2 146/1/2
f 131/3/2 143/3/2 147/3/2
f 143/1/2 145/1/2 147/1/2
f 145/3/2 146/3/2 148/3/2
f 147/1/2 145/1/2 148/1/2
f 147/3/2 148/3/2 149/3/2
f 148/3/2 146/3/2 149/3/2
f 146/3/2 132/3/2 150/3/2
f 149/3/2 146/3/2 150/3/2
f 147/3/2 149/3/2 151/3/2
f 131/3/2 147/3/2 151/3/2
f 149/1/2 150/1/2 152/1/2
f 151/3/2 149/3/2 152/3/2
f 150/3/2 132/3/2 153/3/2
f 152/1/2 150/1/2 153/1/2
f 153/3/2 132/3/2 154/3/2
f 157/3/3 156/3/3 155/3/3
f 158/3/3 156/3/3 157/3/3
f 159/3/3 157/3/3 155/3/3
f 159/1/3 158/1/3 157/1/3
f 160/1/3 158/1/3 159/1/3
f 161/3/3 159/3/3 155/3/3
f 161/3/3 160/3/3 159/3/3
f 162/3/3 160/3/3 161/3/3
f 163/3/3 161/3/3 155/3/3
f 163/1/3 162/1/3 161/1/3
f 164/1/3 162/1/3 163/1/3
f 165/3/3 163/3/3 155/3/3
f 165/3/3 164/3/3 163/3/3
f 166/3/3 164/3/3 165/3/3
f 169/2/3 168/2/3 167/2/3
f 170/2/3 168/2/3 169/2/3
f 173/2/3 172/2/3 171/2/3
f 174/2/3 172/2/3 173/2/3
f 177/3/3 176/3/3 175/3/3
f 178/3/3 176/3/3 177/3/3
f 182/2/3 179/2/3 178/2/3
f 183/2/3 179/2/3 182/2/3
f 184/3/3 181/3/3 180/3/3
f 185/3/3 181/3/3 184/3/3
f 188/3/3 187/3/3 186/3/3
f 189/3/3 187/3/3 188/3/3
f 192/3/3 191/3/3 190/3/3
f 193/3/3 191/3/3 192/3/3
f 196/2/3 195/2/3 194/2/3
f 197/2/3 195/2/3 196/2/3
f 200/2/3 199/2/3 198/2/3
f 201/2/3 199/2/3 200/2/3
f 204/2/3 203/2/3 202/2/3
f 205/2/3 203/2/3 204/2/3
f 208/2/3 207/2/3 206/2/3
f 209/2/3 207/2/3 208/2/3
f 213/3/3 211/3/3 210/3/3
f 213/3/3 212/3/3 211/3/3
f 214/3/3 212/3/3 213/3/3
f 217/3/3 216/3/3 215/3/3
f 218/3/3 216/3/3 217/3/3
f 221/3/3 220/3/3 219/3/3
f 222/3/3 220/3/3 221/3/3
f 223/3/4 224/3/4 225/3/4
f 225/3/4 224/3/4 226/3/4
f 227/3/4 228/3/4 229/3/4
f 229/3/4 228/3/4 230/3/4
f 231/2/4 232/2/4 233/2/4
f 233/2/4 232/2/4 234/2/4
f 235/3/4 236/3/4 237/3/4
f 237/3/4 236/3/4 238/3/4
f 238/2/4 239/2/4 240/2/4
f 240/2/4 239/2/4 241/2/4
f 242/2/4 243/2/4 245/2/4
f 245/2/4 243/2/4 246/2/4
f 244/3/4 245/3/4 247/3/4
f 247/3/4 245/3/4 248/3/4
f 249/3/4 250/3/4 252/3/4
f 250/3/4 251/3/4 252/3/4
f 252/3/4 251/3/4 253/3/4
f 254/2/4 255/2/4 256/2/4
f 256/2/4 255/2/4 257/2/4
f 258/2/4 259/2/4 260/2/4
f 260/2/4 259/2/4 261/2/4
f 262/1/4 263/1/4 264/1/4
f 264/1/4 263/1/4 265/1/4
f 266/2/4 267/2/4 268/2/4
f 268/2/4 267/2/4 269/2/4
f 270/1/4 271/1/4 272/1/4
f 272/1/4 271/1/4 273/1/4
f 274/2/4 275/2/4 276/2/4
f 276/2/4 275/2/4 277/2/4
f 278/3/4 279/3/4 280/3/4
f 280/3/4 279/3/4 281/3/4
f 281/3/4 279/3/4 282/3/4
f 282/3/4 279/3/4 283/3/4
f 282/1/4 283/1/4 284/1/4
f 283/3/4 279/3/4 285/3/4
f 284/1/4 283/1/4 285/1/4
f 284/3/4 285/3/4 286/3/4
f 285/3/4 279/3/4 286/3/4
f 286/3/4 279/3/4 287/3/4
f 281/3/4 282/3/4 288/3/4
f 282/1/4 284/1/4 288/1/4
f 284/3/4 286/3/4 289/3/4
f 288/1/4 284/1/4 289/1/4
f 278/3/4 280/3/4 290/3/4
f 280/1/4 281/1/4 290/1/4
f 288/3/4 289/3/4 291/3/4
f 290/1/4 281/1/4 291/1/4
f 281/3/4 288/3/4 291/3/4
f 289/3/4 286/3/4 292/3/4
f 291/3/4 289/3/4 292/3/4
f 286/1/4 287/1/4 292/1/4
f 287/3/4 279/3/4 293/3/4
f 292/1/4 287/1/4 293/1/4
f 290/3/4 291/3/4 294/3/4
f 278/3/4 290/3/4 294/3/4
f 292/3/4 293/3/4 294/3/4
f 291/3/4 292/3/4 294/3/4
f 293/3/4 279/3/4 295/3/4
f 294/3/4 293/3/4 295/3/4
f 298/3/5 297/3/5 296/3/5
f 299/3/5 297/3/5 298/3/5
f 302/3/5 301/3/5 300/3/5
f 303/3/5 301/3/5 302/3/5
f 306/3/5 305/3/5 304/3/5
f 307/3/5 305/3/5 306/3/5
f 308/3/6 309/3/6 310/3/6
f 310/3/6 309/3/6 311/3/6
f 312/3/6 313/3/6 314/3/6
f 314/3/6 313/3/6 315/3/6
f 316/3/6 317/3/6 318/3/6
f 318/3/6 317/3/6 319/3/6
f 320/3/6 321/3/6 324/3/6
f 324/3/6 321/3/6 325/3/6
f 322/3/6 323/3/6 326/3/6
f 326/3/6 323/3/6 327/3/6
f 328/3/6 329/3/6 332/3/6
f 332/3/6 329/3/6 333/3/6
f 330/3/6 331/3/6 334/3/6
f 334/3/6 331/3/6 335/3/6
f 336/3/6 337/3/6 342/3/6
f 342/3/6 337/3/6 343/3/6
f 337/1/6 338/1/6 344/1/6
f 343/3/6 337/3/6 344/3/6
f 338/3/6 339/3/6 345/3/6
f 344/1/6 338/1/6 345/1/6
f 345/3/6 339/3/6 346/3/6
f 339/1/6 340/1/6 347/1/6
f 346/3/6 339/3/6 347/3/6
f 340/3/6 341/3/6 348/3/6
f 347/1/6 340/1/6 348/1/6
f 348/3/6 341/3/6 349/3/6
f 336/3/6 342/3/6 350/3/6
f 343/3/6 344/3/6 351/3/6
f 344/3/6 345/3/6 351/3/6
f 351/3/6 345/3/6 352/3/6
f 352/3/6 345/3/6 353/3/6
f 346/3/6 347/3/6 354/3/6
f 347/3/6 348/3/6 354/3/6
f 354/3/6 348/3/6 355/3/6
f 355/3/6 348/3/6 356/3/6
f 349/3/6 341/3/6 357/3/6
f 350/3/6 351/3/6 358/3/6
f 352/3/6 353/3/6 359/3/6
f 353/3/6 354/3/6 359/3/6
f 354/3/6 355/3/6 359/3/6
f 359/3/6 355/3/6 360/3/6
f 360/3/6 355/3/6 361/3/6
f 361/3/6 355/3/6 362/3/6
f 356/3/6 357/3/6 363/3/6
f 350/3/6 358/3/6 364/3/6
f 358/3/6 359/3/6 364/3/6
f 364/3/6 359/3/6 365/3/6
f 360/3/6 361/3/6 366/3/6
f 362/3/6 363/3/6 367/3/6
f 361/1/6 362/1/6 367/1/6
f 363/3/6 357/3/6 368/3/6
f 367/3/6 363/3/6 368/3/6
f 357/3/6 341/3/6 369/3/6
f 368/3/6 357/3/6 369/3/6
f 365/3/6 366/3/6 370/3/6
f 366/3/6 361/3/6 370/3/6
f 370/3/6 361/3/6 371/3/6
f 367/1/6 368/1/6 372/1/6
f 371/3/6 361/3/6 372/3/6
f 361/1/6 367/1/6 372/1/6
f 372/1/6 368/1/6 373/1/6
f 373/1/6 368/1/6 374/1/6
f 369/3/6 341/3/6 375/3/6
f 365/3/6 370/3/6 376/3/6
f 364/1/6 365/1/6 376/1/6
f 376/3/6 370/3/6 377/3/6
f 371/3/6 372/3/6 378/3/6
f 372/3/6 373/3/6 378/3/6
f 373/1/6 374/1/6 379/1/6
f 374/3/6 375/3/6 379/3/6
f 375/3/6 341/3/6 380/3/6
f 379/3/6 375/3/6 380/3/6
f 336/3/6 350/3/6 381/3/6
f 350/3/6 364/3/6 381/3/6
f 376/1/6 377/1/6 382/1/6
f 381/3/6 364/3/6 382/3/6
f 364/1/6 376/1/6 382/1/6
f 382/1/6 377/1/6 383/1/6
f 377/3/6 378/3/6 384/3/6
f 378/3/6 373/3/6 384/3/6
f 373/1/6 379/1/6 385/1/6
f 384/3/6 373/3/6 385/3/6
f 379/1/6 380/1/6 385/1/6
f 385/1/6 380/1/6 386/1/6
f 386/1/6 380/1/6 387/1/6
f 387/1/6 380/1/6 388/1/6
f 336/3/6 381/3/6 389/3/6
f 382/3/6 383/3/6 390/3/6
f 383/1/6 377/1/6 391/1/6
f 390/3/6 383/3/6 391/3/6
f 377/3/6 384/3/6 392/3/6
f 391/1/6 377/1/6 392/1/6
f 392/3/6 384/3/6 393/3/6
f 385/3/6 386/3/6 394/3/6
f 394/3/6 386/3/6 395/3/6
f 387/3/6 388/3/6 396/3/6
f 389/3/6 390/3/6 397/3/6
f 390/3/6 391/3/6 397/3/6
f 395/3/6 396/3/6 398/3/6
f 394/3/6 395/3/6 398/3/6
f 393/3/6 394/3/6 398/3/6
f 392/3/6 393/3/6 398/3/6
f 389/3/6 397/3/6 399/3/6
f 397/3/6 398/3/6 399/3/6
f 336/3/6 389/3/6 399/3/6
f 398/3/6 396/3/6 400/3/6
f 399/3/6 398/3/6 400/3/6
f 396/3/6 388/3/6 400/3/6
f 401/2/6 402/2/6 407/2/6
f 407/2/6 402/2/6 408/2/6
f 403/2/6 404/2/6 409/2/6
f 409/2/6 404/2/6 410/2/6
f 405/2/6 406/2/6 411/2/6
f 411/2/6 406/2/6 412/2/6
f 413/2/6 414/2/6 417/2/6
f 417/2/6 414/2/6 418/2/6
f 415/2/6 416/2/6 419/2/6
f 419/2/6 416/2/6 420/2/6
f 421/2/6 422/2/6 425/2/6
f 425/2/6 422/2/6 426/2/6
f 423/2/6 424/2/6 427/2/6
f 427/2/6 424/2/6 428/2/6
