# MagicaVoxel @ Ephtracy

# group
o 

# material
mtllib staricase block.mtl
usemtl palette

# normals
vn -1 0 0
vn 1 0 0
vn 0 0 1
vn 0 0 -1
vn 0 -1 0
vn 0 1 0

# texcoords
vt 0.962891 0.5
vt 0.990234 0.5
vt 0.994141 0.5

# verts
v -0.5 0 0.5
v -0.5 0 -0.5
v -0.5 0.2 0.4
v -0.5 0.2 0.3
v -0.5 0.3 0.4
v -0.5 0.3 0.3
v -0.5 0.3 -0.2
v -0.5 0.3 -0.3
v -0.5 0.4 0.5
v -0.5 0.4 0.3
v -0.5 0.4 0.2
v -0.5 0.4 -0.2
v -0.5 0.5 0.3
v -0.5 0.5 0.2
v -0.5 0.5 -0.3
v -0.5 0.5 -0.5
v -0.4 0.3 -0.2
v -0.4 0.3 -0.3
v -0.4 0.4 0.4
v -0.4 0.4 0.3
v -0.4 0.4 0.2
v -0.4 0.4 0.1
v -0.4 0.4 0
v -0.4 0.4 -0.1
v -0.4 0.4 -0.2
v -0.4 0.4 -0.3
v -0.4 0.5 0.4
v -0.4 0.5 0.3
v -0.4 0.5 0.2
v -0.4 0.5 0.1
v -0.4 0.5 0
v -0.4 0.5 -0.1
v -0.4 0.5 -0.3
v -0.4 0.5 -0.5
v -0.4 0.6 0.1
v -0.4 0.6 0
v -0.4 0.6 -0.4
v -0.4 0.6 -0.5
v -0.4 0.7 -0.3
v -0.4 0.7 -0.4
v -0.4 0.8 -0.3
v -0.4 0.8 -0.4
v -0.3 0.4 0.5
v -0.3 0.4 0.4
v -0.3 0.4 0.1
v -0.3 0.4 0
v -0.3 0.4 -0.1
v -0.3 0.4 -0.3
v -0.3 0.5 0.5
v -0.3 0.5 0.4
v -0.3 0.5 0.3
v -0.3 0.5 0.1
v -0.3 0.5 0
v -0.3 0.5 -0.1
v -0.3 0.6 0.3
v -0.3 0.6 0.1
v -0.3 0.6 0
v -0.3 0.6 -0.3
v -0.2 0.6 0.3
v -0.2 0.6 0.2
v -0.2 0.6 0
v -0.2 0.6 -0.1
v -0.2 0.6 -0.2
v -0.2 0.6 -0.3
v -0.2 0.7 0.3
v -0.2 0.7 0.2
v -0.2 0.7 0
v -0.2 0.7 -0.1
v -0.2 0.7 -0.2
v -0.2 0.7 -0.3
v -0.1 0.5 0.5
v -0.1 0.5 0.4
v -0.1 0.6 -0.1
v -0.1 0.6 -0.2
v -0.1 0.6 -0.3
v -0.1 0.6 -0.4
v -0.1 0.7 0.5
v -0.1 0.7 0.4
v -0.1 0.7 -0.1
v -0.1 0.7 -0.2
v -0.1 0.7 -0.3
v -0.1 0.7 -0.4
v -0.1 0.8 -0.2
v -0.1 0.8 -0.3
v 0 0.6 0.4
v 0 0.6 0.3
v 0 0.6 0.1
v 0 0.6 0
v 0 0.6 -0.4
v 0 0.6 -0.5
v 0 0.7 0.5
v 0 0.7 0.4
v 0 0.7 0.3
v 0 0.7 0.2
v 0 0.7 0.1
v 0 0.7 0
v 0 0.7 -0.3
v 0 0.7 -0.4
v 0 0.7 -0.5
v 0 0.8 0.5
v 0 0.8 0.2
v 0 0.8 -0.3
v 0 0.8 -0.4
v 0.1 0.3 0.4
v 0.1 0.3 0.3
v 0.1 0.6 0.4
v 0.1 0.6 0.3
v 0.1 0.6 0.2
v 0.1 0.6 0.1
v 0.1 0.7 0.1
v 0.1 0.7 -0.1
v 0.1 0.7 -0.2
v 0.1 0.7 -0.4
v 0.1 0.7 -0.5
v 0.1 0.8 0.5
v 0.1 0.8 0.4
v 0.1 0.8 0.3
v 0.1 0.8 0.2
v 0.1 0.8 0.1
v 0.1 0.8 -0.1
v 0.1 0.8 -0.2
v 0.1 0.8 -0.4
v 0.1 0.8 -0.5
v 0.1 0.9 0.5
v 0.1 0.9 0.4
v 0.1 0.9 0.3
v 0.1 0.9 0.2
v 0.2 0.7 0.1
v 0.2 0.7 -0.1
v 0.2 0.8 0.4
v 0.2 0.8 0.3
v 0.2 0.8 0.2
v 0.2 0.8 0.1
v 0.2 0.8 0
v 0.2 0.8 -0.1
v 0.2 0.8 -0.2
v 0.2 0.8 -0.3
v 0.2 0.8 -0.4
v 0.2 0.8 -0.5
v 0.2 0.9 0.5
v 0.2 0.9 0.4
v 0.2 0.9 0.3
v 0.2 0.9 0.2
v 0.2 0.9 0.1
v 0.2 0.9 0
v 0.2 0.9 -0.2
v 0.2 0.9 -0.3
v 0.2 0.9 -0.4
v 0.2 0.9 -0.5
v 0.2 1 0.5
v 0.2 1 0.4
v 0.2 1 0.3
v 0.2 1 0.2
v 0.2 1 0.1
v 0.3 0.8 0
v 0.3 0.8 -0.2
v 0.3 0.8 -0.3
v 0.3 0.8 -0.4
v 0.3 0.9 0.3
v 0.3 0.9 0.2
v 0.3 0.9 0.1
v 0.3 0.9 0
v 0.3 0.9 -0.1
v 0.3 0.9 -0.2
v 0.3 0.9 -0.3
v 0.3 0.9 -0.4
v 0.3 0.9 -0.5
v 0.3 1 0.3
v 0.3 1 0.2
v 0.3 1 0.1
v 0.3 1 -0.1
v 0.3 1 -0.2
v 0.3 1 -0.4
v 0.3 1 -0.5
v 0.4 0.9 0.2
v 0.4 0.9 0.1
v 0.4 0.9 -0.2
v 0.4 0.9 -0.4
v 0.4 1 0.5
v 0.4 1 0.4
v 0.4 1 0.2
v 0.4 1 0.1
v 0.4 1 -0.2
v 0.4 1 -0.3
v 0.4 1 -0.4
v 0.4 1 -0.5
v 0.4 1.1 0.5
v 0.4 1.1 0.4
v 0.4 1.1 -0.3
v 0.4 1.1 -0.5
v -0.3 0.6 -0.3
v -0.3 0.6 -0.4
v -0.3 0.7 -0.3
v -0.3 0.7 -0.4
v -0.3 0.8 -0.3
v -0.3 0.8 -0.4
v -0.2 0.3 0.4
v -0.2 0.3 0.3
v -0.2 0.5 0.4
v -0.2 0.5 0.3
v 0.3 0.9 0.2
v 0.3 0.9 0.1
v 0.3 1 0.2
v 0.3 1 0.1
v 0.5 0 0.5
v 0.5 0 -0.5
v 0.5 0.1 0.2
v 0.5 0.1 -0.1
v 0.5 0.2 0.3
v 0.5 0.2 0.2
v 0.5 0.2 0.1
v 0.5 0.2 0
v 0.5 0.3 0.3
v 0.5 0.3 0.1
v 0.5 0.3 0
v 0.5 0.3 -0.1
v 0.5 0.6 0.3
v 0.5 0.6 -0.2
v 0.5 0.7 0.2
v 0.5 0.7 -0.2
v 0.5 0.8 0.3
v 0.5 0.8 0.2
v 0.5 0.9 -0.1
v 0.5 0.9 -0.2
v 0.5 1 0.4
v 0.5 1 -0.1
v 0.5 1 -0.2
v 0.5 1 -0.3
v 0.5 1.1 0.5
v 0.5 1.1 0.4
v 0.5 1.1 -0.3
v 0.5 1.1 -0.5
v -0.5 0 0.5
v -0.5 0.4 0.5
v -0.3 0.4 0.5
v -0.3 0.5 0.5
v -0.1 0.5 0.5
v -0.1 0.7 0.5
v 0 0.7 0.5
v 0 0.8 0.5
v 0.1 0.8 0.5
v 0.1 0.9 0.5
v 0.2 0.9 0.5
v 0.2 1 0.5
v 0.3 0.9 0.5
v 0.3 1 0.5
v 0.4 1 0.5
v 0.4 1.1 0.5
v 0.5 0 0.5
v 0.5 1.1 0.5
v -0.4 0.4 0.4
v -0.4 0.5 0.4
v -0.3 0.4 0.4
v -0.3 0.5 0.4
v -0.5 0.4 0.3
v -0.5 0.5 0.3
v -0.4 0.4 0.3
v -0.4 0.5 0.3
v -0.3 0.5 0.3
v -0.3 0.6 0.3
v -0.2 0.3 0.3
v -0.2 0.5 0.3
v -0.2 0.6 0.3
v -0.2 0.7 0.3
v -0.1 0.6 0.3
v -0.1 0.7 0.3
v 0 0.6 0.3
v 0 0.7 0.3
v 0.1 0.3 0.3
v 0.1 0.6 0.3
v 0.1 0.8 0.3
v 0.1 0.9 0.3
v 0.2 0.8 0.3
v 0.2 0.9 0.3
v 0.2 0.9 0.2
v 0.2 1 0.2
v 0.3 0.9 0.2
v 0.3 1 0.2
v -0.4 0.5 0.1
v -0.4 0.6 0.1
v -0.3 0.5 0.1
v -0.3 0.6 0.1
v 0 0.6 0.1
v 0 0.7 0.1
v 0.1 0.6 0.1
v 0.1 0.7 0.1
v 0.3 0.9 0.1
v 0.3 1 0.1
v 0.4 0.9 0.1
v 0.4 1 0.1
v -0.4 0.4 0
v -0.4 0.5 0
v -0.3 0.4 0
v -0.3 0.5 0
v -0.2 0.6 0
v -0.2 0.7 0
v 0 0.6 0
v 0 0.7 0
v 0.1 0.7 -0.1
v 0.1 0.8 -0.1
v 0.2 0.7 -0.1
v 0.2 0.8 -0.1
v -0.2 0.6 -0.2
v -0.2 0.7 -0.2
v -0.1 0.6 -0.2
v -0.1 0.7 -0.2
v -0.1 0.8 -0.2
v 0.1 0.7 -0.2
v 0.1 0.8 -0.2
v 0.2 0.8 -0.2
v 0.2 0.9 -0.2
v 0.3 0.8 -0.2
v 0.3 0.9 -0.2
v -0.5 0.3 -0.3
v -0.5 0.5 -0.3
v -0.4 0.3 -0.3
v -0.4 0.4 -0.3
v -0.4 0.5 -0.3
v -0.4 0.7 -0.3
v -0.4 0.8 -0.3
v -0.3 0.4 -0.3
v -0.3 0.6 -0.3
v -0.3 0.7 -0.3
v -0.3 0.8 -0.3
v 0.4 1 -0.3
v 0.4 1.1 -0.3
v 0.5 1 -0.3
v 0.5 1.1 -0.3
v 0.2 0.8 -0.4
v 0.2 0.9 -0.4
v 0.3 0.8 -0.4
v 0.3 0.9 -0.4
v 0.3 1 -0.4
v 0.4 0.9 -0.4
v 0.4 1 -0.4
v -0.2 0.3 0.4
v -0.2 0.5 0.4
v -0.1 0.5 0.4
v -0.1 0.7 0.4
v 0 0.6 0.4
v 0 0.7 0.4
v 0.1 0.3 0.4
v 0.1 0.6 0.4
v 0.1 0.8 0.4
v 0.1 0.9 0.4
v 0.2 0.8 0.4
v 0.2 0.9 0.4
v 0.4 1 0.4
v 0.4 1.1 0.4
v 0.5 1 0.4
v 0.5 1.1 0.4
v 0.2 0.9 0.3
v 0.2 1 0.3
v 0.3 0.9 0.3
v 0.3 1 0.3
v -0.5 0.4 0.2
v -0.5 0.5 0.2
v -0.4 0.4 0.2
v -0.4 0.5 0.2
v -0.2 0.6 0.2
v -0.2 0.7 0.2
v -0.1 0.6 0.2
v -0.1 0.7 0.2
v 0 0.7 0.2
v 0 0.8 0.2
v 0.1 0.6 0.2
v 0.1 0.8 0.2
v 0.1 0.9 0.2
v 0.2 0.8 0.2
v 0.2 0.9 0.2
v 0.3 0.9 0.2
v 0.3 1 0.2
v 0.4 0.9 0.2
v 0.4 1 0.2
v -0.4 0.4 0.1
v -0.4 0.5 0.1
v -0.3 0.4 0.1
v -0.3 0.5 0.1
v 0.1 0.7 0.1
v 0.1 0.8 0.1
v 0.2 0.7 0.1
v 0.2 0.8 0.1
v 0.2 0.9 0.1
v 0.2 1 0.1
v 0.3 0.9 0.1
v 0.3 1 0.1
v -0.4 0.5 0
v -0.4 0.6 0
v -0.3 0.5 0
v -0.3 0.6 0
v 0.2 0.8 0
v 0.2 0.9 0
v 0.3 0.8 0
v 0.3 0.9 0
v -0.4 0.4 -0.1
v -0.4 0.5 -0.1
v -0.3 0.4 -0.1
v -0.3 0.5 -0.1
v -0.2 0.6 -0.1
v -0.2 0.7 -0.1
v -0.1 0.6 -0.1
v -0.1 0.7 -0.1
v -0.5 0.3 -0.2
v -0.5 0.4 -0.2
v -0.4 0.3 -0.2
v -0.4 0.4 -0.2
v 0.3 0.9 -0.2
v 0.3 1 -0.2
v 0.4 0.9 -0.2
v 0.4 1 -0.2
v -0.2 0.6 -0.3
v -0.2 0.7 -0.3
v -0.1 0.6 -0.3
v -0.1 0.7 -0.3
v -0.1 0.8 -0.3
v 0 0.7 -0.3
v 0 0.8 -0.3
v 0.2 0.8 -0.3
v 0.2 0.9 -0.3
v 0.3 0.8 -0.3
v 0.3 0.9 -0.3
v -0.4 0.6 -0.4
v -0.4 0.7 -0.4
v -0.4 0.8 -0.4
v -0.3 0.6 -0.4
v -0.3 0.7 -0.4
v -0.3 0.8 -0.4
v -0.1 0.6 -0.4
v -0.1 0.7 -0.4
v 0 0.6 -0.4
v 0 0.7 -0.4
v 0 0.8 -0.4
v 0.1 0.7 -0.4
v 0.1 0.8 -0.4
v -0.5 0 -0.5
v -0.5 0.5 -0.5
v -0.4 0.5 -0.5
v -0.4 0.6 -0.5
v -0.3 0.3 -0.5
v -0.3 0.4 -0.5
v -0.3 0.5 -0.5
v -0.3 0.6 -0.5
v 0 0.6 -0.5
v 0 0.7 -0.5
v 0.1 0.5 -0.5
v 0.1 0.6 -0.5
v 0.1 0.7 -0.5
v 0.1 0.8 -0.5
v 0.2 0.8 -0.5
v 0.2 0.9 -0.5
v 0.3 0.3 -0.5
v 0.3 0.4 -0.5
v 0.3 0.7 -0.5
v 0.3 0.8 -0.5
v 0.3 0.9 -0.5
v 0.3 1 -0.5
v 0.4 1 -0.5
v 0.4 1.1 -0.5
v 0.5 0 -0.5
v 0.5 1.1 -0.5
v -0.5 0 0.5
v 0.5 0 0.5
v -0.5 0 -0.5
v 0.5 0 -0.5
v -0.4 0.5 0.1
v -0.3 0.5 0.1
v -0.4 0.5 0
v -0.3 0.5 0
v 0 0.6 0.4
v 0.1 0.6 0.4
v 0 0.6 0.3
v 0.1 0.6 0.3
v -0.2 0.3 0.4
v 0.1 0.3 0.4
v -0.2 0.3 0.3
v 0.1 0.3 0.3
v -0.5 0.3 -0.2
v -0.4 0.3 -0.2
v -0.5 0.3 -0.3
v -0.4 0.3 -0.3
v -0.5 0.4 0.5
v -0.3 0.4 0.5
v -0.4 0.4 0.4
v -0.3 0.4 0.4
v -0.5 0.4 0.3
v -0.4 0.4 0.3
v -0.5 0.4 0.2
v -0.4 0.4 0.2
v -0.4 0.4 0.1
v -0.3 0.4 0.1
v -0.4 0.4 0
v -0.3 0.4 0
v -0.4 0.4 -0.1
v -0.3 0.4 -0.1
v -0.5 0.4 -0.2
v -0.4 0.4 -0.2
v -0.4 0.4 -0.3
v -0.3 0.4 -0.3
v -0.3 0.5 0.5
v -0.1 0.5 0.5
v -0.4 0.5 0.4
v -0.3 0.5 0.4
v -0.2 0.5 0.4
v -0.1 0.5 0.4
v -0.5 0.5 0.3
v -0.4 0.5 0.3
v -0.3 0.5 0.3
v -0.2 0.5 0.3
v -0.5 0.5 0.2
v -0.4 0.5 0.2
v -0.4 0.5 0.1
v -0.3 0.5 0.1
v -0.4 0.5 0
v -0.3 0.5 0
v -0.4 0.5 -0.1
v -0.3 0.5 -0.1
v -0.5 0.5 -0.3
v -0.4 0.5 -0.3
v -0.5 0.5 -0.5
v -0.4 0.5 -0.5
v -0.3 0.6 0.3
v -0.2 0.6 0.3
v -0.2 0.6 0.2
v -0.1 0.6 0.2
v 0.1 0.6 0.2
v -0.4 0.6 0.1
v -0.3 0.6 0.1
v 0 0.6 0.1
v 0.1 0.6 0.1
v -0.4 0.6 0
v -0.3 0.6 0
v -0.2 0.6 0
v 0 0.6 0
v -0.2 0.6 -0.1
v -0.1 0.6 -0.1
v -0.2 0.6 -0.2
v -0.1 0.6 -0.2
v -0.3 0.6 -0.3
v -0.2 0.6 -0.3
v -0.1 0.6 -0.3
v -0.4 0.6 -0.4
v -0.3 0.6 -0.4
v -0.1 0.6 -0.4
v 0 0.6 -0.4
v -0.4 0.6 -0.5
v -0.3 0.6 -0.5
v 0 0.6 -0.5
v -0.1 0.7 0.5
v 0 0.7 0.5
v -0.1 0.7 0.4
v 0 0.7 0.4
v -0.2 0.7 0.3
v -0.1 0.7 0.3
v 0 0.7 0.3
v -0.2 0.7 0.2
v -0.1 0.7 0.2
v 0 0.7 0.2
v 0 0.7 0.1
v 0.1 0.7 0.1
v 0.2 0.7 0.1
v -0.2 0.7 0
v 0 0.7 0
v -0.2 0.7 -0.1
v -0.1 0.7 -0.1
v 0.1 0.7 -0.1
v 0.2 0.7 -0.1
v -0.2 0.7 -0.2
v -0.1 0.7 -0.2
v 0.1 0.7 -0.2
v -0.2 0.7 -0.3
v -0.1 0.7 -0.3
v 0 0.7 -0.3
v -0.1 0.7 -0.4
v 0 0.7 -0.4
v 0.1 0.7 -0.4
v 0 0.7 -0.5
v 0.1 0.7 -0.5
v 0 0.8 0.5
v 0.1 0.8 0.5
v 0.1 0.8 0.4
v 0.2 0.8 0.4
v 0.1 0.8 0.3
v 0.2 0.8 0.3
v 0 0.8 0.2
v 0.1 0.8 0.2
v 0.2 0.8 0.2
v 0.1 0.8 0.1
v 0.2 0.8 0.1
v 0.2 0.8 0
v 0.3 0.8 0
v 0.1 0.8 -0.1
v 0.2 0.8 -0.1
v -0.1 0.8 -0.2
v 0.1 0.8 -0.2
v 0.2 0.8 -0.2
v 0.3 0.8 -0.2
v -0.4 0.8 -0.3
v -0.3 0.8 -0.3
v -0.1 0.8 -0.3
v 0 0.8 -0.3
v 0.2 0.8 -0.3
v 0.3 0.8 -0.3
v -0.4 0.8 -0.4
v -0.3 0.8 -0.4
v 0 0.8 -0.4
v 0.1 0.8 -0.4
v 0.2 0.8 -0.4
v 0.3 0.8 -0.4
v 0.1 0.8 -0.5
v 0.2 0.8 -0.5
v 0.1 0.9 0.5
v 0.2 0.9 0.5
v 0.1 0.9 0.4
v 0.2 0.9 0.4
v 0.1 0.9 0.3
v 0.2 0.9 0.3
v 0.3 0.9 0.3
v 0.1 0.9 0.2
v 0.2 0.9 0.2
v 0.3 0.9 0.2
v 0.4 0.9 0.2
v 0.2 0.9 0.1
v 0.3 0.9 0.1
v 0.4 0.9 0.1
v 0.2 0.9 0
v 0.3 0.9 0
v 0.2 0.9 -0.2
v 0.3 0.9 -0.2
v 0.4 0.9 -0.2
v 0.2 0.9 -0.3
v 0.3 0.9 -0.3
v 0.2 0.9 -0.4
v 0.3 0.9 -0.4
v 0.4 0.9 -0.4
v 0.2 0.9 -0.5
v 0.3 0.9 -0.5
v 0.2 1 0.5
v 0.3 1 0.5
v 0.4 1 0.5
v 0.2 1 0.4
v 0.3 1 0.4
v 0.4 1 0.4
v 0.5 1 0.4
v 0.2 1 0.3
v 0.3 1 0.3
v 0.2 1 0.2
v 0.3 1 0.2
v 0.4 1 0.2
v 0.2 1 0.1
v 0.3 1 0.1
v 0.4 1 0.1
v 0.3 1 -0.1
v 0.5 1 -0.1
v 0.3 1 -0.2
v 0.4 1 -0.2
v 0.5 1 -0.2
v 0.4 1 -0.3
v 0.5 1 -0.3
v 0.3 1 -0.4
v 0.4 1 -0.4
v 0.3 1 -0.5
v 0.4 1 -0.5
v 0.4 1.1 0.5
v 0.5 1.1 0.5
v 0.4 1.1 0.4
v 0.5 1.1 0.4
v 0.4 1.1 -0.3
v 0.5 1.1 -0.3
v 0.4 1.1 -0.5
v 0.5 1.1 -0.5

# faces
f 3/3/1 2/3/1 1/3/1
f 4/3/1 2/3/1 3/3/1
f 5/3/1 3/3/1 1/3/1
f 5/1/1 4/1/1 3/1/1
f 6/3/1 2/3/1 4/3/1
f 6/1/1 4/1/1 5/1/1
f 7/3/1 2/3/1 6/3/1
f 8/3/1 2/3/1 7/3/1
f 9/3/1 5/3/1 1/3/1
f 9/3/1 6/3/1 5/3/1
f 9/3/1 7/3/1 6/3/1
f 10/3/1 7/3/1 9/3/1
f 11/3/1 7/3/1 10/3/1
f 12/3/1 7/3/1 11/3/1
f 13/3/1 11/3/1 10/3/1
f 14/3/1 11/3/1 13/3/1
f 15/3/1 2/3/1 8/3/1
f 16/3/1 2/3/1 15/3/1
f 25/3/1 18/3/1 17/3/1
f 26/3/1 18/3/1 25/3/1
f 27/3/1 20/3/1 19/3/1
f 28/3/1 20/3/1 27/3/1
f 29/3/1 22/3/1 21/3/1
f 30/3/1 22/3/1 29/3/1
f 31/2/1 24/2/1 23/2/1
f 32/2/1 24/2/1 31/2/1
f 35/3/1 31/3/1 30/3/1
f 36/3/1 31/3/1 35/3/1
f 37/3/1 34/3/1 33/3/1
f 38/3/1 34/3/1 37/3/1
f 39/3/1 37/3/1 33/3/1
f 40/3/1 37/3/1 39/3/1
f 41/2/1 40/2/1 39/2/1
f 42/2/1 40/2/1 41/2/1
f 49/3/1 44/3/1 43/3/1
f 50/3/1 44/3/1 49/3/1
f 52/3/1 46/3/1 45/3/1
f 53/3/1 46/3/1 52/3/1
f 54/3/1 48/3/1 47/3/1
f 55/3/1 52/3/1 51/3/1
f 56/3/1 52/3/1 55/3/1
f 57/3/1 54/3/1 53/3/1
f 58/3/1 48/3/1 54/3/1
f 58/3/1 54/3/1 57/3/1
f 65/2/1 60/2/1 59/2/1
f 66/2/1 60/2/1 65/2/1
f 67/3/1 62/3/1 61/3/1
f 68/3/1 62/3/1 67/3/1
f 69/3/1 64/3/1 63/3/1
f 70/3/1 64/3/1 69/3/1
f 77/3/1 72/3/1 71/3/1
f 78/3/1 72/3/1 77/3/1
f 79/3/1 74/3/1 73/3/1
f 80/3/1 74/3/1 79/3/1
f 81/3/1 76/3/1 75/3/1
f 82/3/1 76/3/1 81/3/1
f 83/3/1 81/3/1 80/3/1
f 84/3/1 81/3/1 83/3/1
f 92/3/1 86/3/1 85/3/1
f 93/3/1 86/3/1 92/3/1
f 95/3/1 88/3/1 87/3/1
f 96/3/1 88/3/1 95/3/1
f 98/3/1 90/3/1 89/3/1
f 99/3/1 90/3/1 98/3/1
f 100/3/1 94/3/1 93/3/1
f 100/3/1 92/3/1 91/3/1
f 100/3/1 93/3/1 92/3/1
f 101/3/1 94/3/1 100/3/1
f 102/3/1 98/3/1 97/3/1
f 103/3/1 98/3/1 102/3/1
f 106/3/1 105/3/1 104/3/1
f 107/3/1 105/3/1 106/3/1
f 110/3/1 109/3/1 108/3/1
f 118/3/1 110/3/1 108/3/1
f 119/3/1 110/3/1 118/3/1
f 120/3/1 112/3/1 111/3/1
f 121/3/1 112/3/1 120/3/1
f 122/1/1 114/1/1 113/1/1
f 123/1/1 114/1/1 122/1/1
f 124/3/1 116/3/1 115/3/1
f 125/3/1 116/3/1 124/3/1
f 126/3/1 118/3/1 117/3/1
f 127/3/1 118/3/1 126/3/1
f 133/3/1 129/3/1 128/3/1
f 134/3/1 129/3/1 133/3/1
f 135/3/1 129/3/1 134/3/1
f 141/3/1 131/3/1 130/3/1
f 142/3/1 131/3/1 141/3/1
f 143/3/1 133/3/1 132/3/1
f 143/3/1 134/3/1 133/3/1
f 144/3/1 134/3/1 143/3/1
f 145/3/1 134/3/1 144/3/1
f 146/2/1 137/2/1 136/2/1
f 147/2/1 137/2/1 146/2/1
f 148/3/1 139/3/1 138/3/1
f 149/3/1 139/3/1 148/3/1
f 150/1/1 141/1/1 140/1/1
f 151/3/1 142/3/1 141/3/1
f 151/1/1 141/1/1 150/1/1
f 152/3/1 142/3/1 151/3/1
f 153/2/1 144/2/1 143/2/1
f 154/2/1 144/2/1 153/2/1
f 162/3/1 156/3/1 155/3/1
f 163/3/1 156/3/1 162/3/1
f 164/3/1 156/3/1 163/3/1
f 165/3/1 158/3/1 157/3/1
f 166/3/1 158/3/1 165/3/1
f 168/3/1 160/3/1 159/3/1
f 169/3/1 160/3/1 168/3/1
f 170/3/1 162/3/1 161/3/1
f 170/3/1 163/3/1 162/3/1
f 171/1/1 164/1/1 163/1/1
f 171/3/1 163/3/1 170/3/1
f 172/1/1 164/1/1 171/1/1
f 173/3/1 167/3/1 166/3/1
f 174/3/1 167/3/1 173/3/1
f 181/3/1 176/3/1 175/3/1
f 182/3/1 176/3/1 181/3/1
f 183/3/1 178/3/1 177/3/1
f 184/3/1 178/3/1 183/3/1
f 185/3/1 178/3/1 184/3/1
f 187/3/1 180/3/1 179/3/1
f 188/3/1 180/3/1 187/3/1
f 189/3/1 186/3/1 185/3/1
f 189/3/1 185/3/1 184/3/1
f 190/3/1 186/3/1 189/3/1
f 191/3/2 192/3/2 193/3/2
f 193/3/2 192/3/2 194/3/2
f 193/2/2 194/2/2 195/2/2
f 195/2/2 194/2/2 196/2/2
f 197/3/2 198/3/2 199/3/2
f 199/3/2 198/3/2 200/3/2
f 201/2/2 202/2/2 203/2/2
f 203/2/2 202/2/2 204/2/2
f 205/3/2 206/3/2 207/3/2
f 207/3/2 206/3/2 208/3/2
f 205/3/2 207/3/2 209/3/2
f 207/1/2 208/1/2 210/1/2
f 209/3/2 207/3/2 210/3/2
f 210/1/2 208/1/2 211/1/2
f 211/1/2 208/1/2 212/1/2
f 205/3/2 209/3/2 213/3/2
f 209/1/2 210/1/2 213/1/2
f 210/1/2 211/1/2 213/1/2
f 211/3/2 212/3/2 214/3/2
f 213/1/2 211/1/2 214/1/2
f 212/1/2 208/1/2 215/1/2
f 214/3/2 212/3/2 215/3/2
f 208/3/2 206/3/2 216/3/2
f 215/1/2 208/1/2 216/1/2
f 214/3/2 215/3/2 217/3/2
f 213/3/2 214/3/2 217/3/2
f 215/3/2 216/3/2 217/3/2
f 205/3/2 213/3/2 217/3/2
f 216/3/2 206/3/2 218/3/2
f 217/3/2 216/3/2 218/3/2
f 217/1/2 218/1/2 219/1/2
f 218/3/2 206/3/2 220/3/2
f 219/1/2 218/1/2 220/1/2
f 205/3/2 217/3/2 221/3/2
f 217/1/2 219/1/2 221/1/2
f 219/3/2 220/3/2 222/3/2
f 221/1/2 219/1/2 222/1/2
f 221/3/2 222/3/2 223/3/2
f 222/3/2 220/3/2 223/3/2
f 220/3/2 206/3/2 224/3/2
f 223/3/2 220/3/2 224/3/2
f 221/3/2 223/3/2 225/3/2
f 205/3/2 221/3/2 225/3/2
f 223/1/2 224/1/2 226/1/2
f 225/3/2 223/3/2 226/3/2
f 224/3/2 206/3/2 227/3/2
f 226/1/2 224/1/2 227/1/2
f 227/3/2 206/3/2 228/3/2
f 205/3/2 225/3/2 229/3/2
f 229/3/2 225/3/2 230/3/2
f 228/3/2 206/3/2 231/3/2
f 231/3/2 206/3/2 232/3/2
f 235/3/3 234/3/3 233/3/3
f 237/3/3 236/3/3 235/3/3
f 239/3/3 238/3/3 237/3/3
f 241/3/3 240/3/3 239/3/3
f 243/3/3 242/3/3 241/3/3
f 245/3/3 243/3/3 241/3/3
f 245/1/3 244/1/3 243/1/3
f 246/1/3 244/1/3 245/1/3
f 247/3/3 246/3/3 245/3/3
f 249/3/3 235/3/3 233/3/3
f 249/3/3 248/3/3 247/3/3
f 249/3/3 247/3/3 245/3/3
f 249/3/3 245/3/3 241/3/3
f 249/3/3 241/3/3 239/3/3
f 249/3/3 239/3/3 237/3/3
f 249/3/3 237/3/3 235/3/3
f 250/3/3 248/3/3 249/3/3
f 253/3/3 252/3/3 251/3/3
f 254/3/3 252/3/3 253/3/3
f 257/3/3 256/3/3 255/3/3
f 258/3/3 256/3/3 257/3/3
f 262/3/3 260/3/3 259/3/3
f 263/3/3 260/3/3 262/3/3
f 265/3/3 262/3/3 261/3/3
f 265/2/3 264/2/3 263/2/3
f 265/3/3 263/3/3 262/3/3
f 266/2/3 264/2/3 265/2/3
f 267/3/3 265/3/3 261/3/3
f 267/3/3 266/3/3 265/3/3
f 268/3/3 266/3/3 267/3/3
f 269/3/3 267/3/3 261/3/3
f 270/3/3 267/3/3 269/3/3
f 273/3/3 272/3/3 271/3/3
f 274/3/3 272/3/3 273/3/3
f 277/2/3 276/2/3 275/2/3
f 278/2/3 276/2/3 277/2/3
f 281/3/3 280/3/3 279/3/3
f 282/3/3 280/3/3 281/3/3
f 285/3/3 284/3/3 283/3/3
f 286/3/3 284/3/3 285/3/3
f 289/3/3 288/3/3 287/3/3
f 290/3/3 288/3/3 289/3/3
f 293/2/3 292/2/3 291/2/3
f 294/2/3 292/2/3 293/2/3
f 297/3/3 296/3/3 295/3/3
f 298/3/3 296/3/3 297/3/3
f 301/3/3 300/3/3 299/3/3
f 302/3/3 300/3/3 301/3/3
f 305/3/3 304/3/3 303/3/3
f 306/3/3 304/3/3 305/3/3
f 308/3/3 307/3/3 306/3/3
f 309/3/3 307/3/3 308/3/3
f 312/2/3 311/2/3 310/2/3
f 313/2/3 311/2/3 312/2/3
f 316/3/3 315/3/3 314/3/3
f 317/3/3 315/3/3 316/3/3
f 318/3/3 315/3/3 317/3/3
f 321/3/3 318/3/3 317/3/3
f 321/3/3 319/3/3 318/3/3
f 322/3/3 319/3/3 321/3/3
f 323/2/3 320/2/3 319/2/3
f 323/3/3 319/3/3 322/3/3
f 324/2/3 320/2/3 323/2/3
f 327/3/3 326/3/3 325/3/3
f 328/3/3 326/3/3 327/3/3
f 331/3/3 330/3/3 329/3/3
f 332/3/3 330/3/3 331/3/3
f 334/3/3 333/3/3 332/3/3
f 335/3/3 333/3/3 334/3/3
f 336/3/4 337/3/4 338/3/4
f 338/3/4 339/3/4 340/3/4
f 340/3/4 339/3/4 341/3/4
f 336/3/4 338/3/4 342/3/4
f 338/3/4 340/3/4 342/3/4
f 342/3/4 340/3/4 343/3/4
f 344/3/4 345/3/4 346/3/4
f 346/3/4 345/3/4 347/3/4
f 348/3/4 349/3/4 350/3/4
f 350/3/4 349/3/4 351/3/4
f 352/3/4 353/3/4 354/3/4
f 354/3/4 353/3/4 355/3/4
f 356/3/4 357/3/4 358/3/4
f 358/3/4 357/3/4 359/3/4
f 360/2/4 361/2/4 362/2/4
f 362/2/4 361/2/4 363/2/4
f 362/3/4 363/3/4 364/3/4
f 362/3/4 364/3/4 366/3/4
f 364/3/4 365/3/4 366/3/4
f 366/3/4 365/3/4 367/3/4
f 367/3/4 368/3/4 369/3/4
f 369/3/4 368/3/4 370/3/4
f 371/3/4 372/3/4 373/3/4
f 373/3/4 372/3/4 374/3/4
f 375/3/4 376/3/4 377/3/4
f 377/3/4 376/3/4 378/3/4
f 379/3/4 380/3/4 381/3/4
f 381/3/4 380/3/4 382/3/4
f 383/2/4 384/2/4 385/2/4
f 385/2/4 384/2/4 386/2/4
f 387/3/4 388/3/4 389/3/4
f 389/3/4 388/3/4 390/3/4
f 391/3/4 392/3/4 393/3/4
f 393/3/4 392/3/4 394/3/4
f 395/2/4 396/2/4 397/2/4
f 397/2/4 396/2/4 398/2/4
f 399/3/4 400/3/4 401/3/4
f 401/3/4 400/3/4 402/3/4
f 403/3/4 404/3/4 405/3/4
f 405/3/4 404/3/4 406/3/4
f 407/1/4 408/1/4 409/1/4
f 409/1/4 408/1/4 410/1/4
f 411/3/4 412/3/4 413/3/4
f 413/3/4 412/3/4 414/3/4
f 414/3/4 415/3/4 416/3/4
f 416/3/4 415/3/4 417/3/4
f 418/2/4 419/2/4 420/2/4
f 420/2/4 419/2/4 421/2/4
f 422/3/4 423/3/4 425/3/4
f 423/2/4 424/2/4 426/2/4
f 425/3/4 423/3/4 426/3/4
f 426/2/4 424/2/4 427/2/4
f 428/3/4 429/3/4 430/3/4
f 430/3/4 429/3/4 431/3/4
f 431/3/4 432/3/4 433/3/4
f 433/3/4 432/3/4 434/3/4
f 435/3/4 436/3/4 437/3/4
f 435/3/4 437/3/4 439/3/4
f 437/3/4 438/3/4 439/3/4
f 439/3/4 438/3/4 440/3/4
f 440/3/4 438/3/4 441/3/4
f 441/3/4 438/3/4 442/3/4
f 441/1/4 442/1/4 443/1/4
f 440/3/4 441/3/4 445/3/4
f 441/1/4 443/1/4 445/1/4
f 443/3/4 444/3/4 446/3/4
f 445/1/4 443/1/4 446/1/4
f 446/3/4 444/3/4 447/3/4
f 447/1/4 448/1/4 449/1/4
f 435/3/4 439/3/4 451/3/4
f 439/1/4 440/1/4 451/1/4
f 440/3/4 445/3/4 452/3/4
f 451/1/4 440/1/4 452/1/4
f 445/3/4 446/3/4 452/3/4
f 446/3/4 447/3/4 452/3/4
f 447/1/4 449/1/4 453/1/4
f 452/3/4 447/3/4 453/3/4
f 449/3/4 450/3/4 454/3/4
f 453/1/4 449/1/4 454/1/4
f 454/3/4 450/3/4 455/3/4
f 452/3/4 453/3/4 457/3/4
f 455/3/4 456/3/4 457/3/4
f 454/3/4 455/3/4 457/3/4
f 453/3/4 454/3/4 457/3/4
f 451/3/4 452/3/4 457/3/4
f 435/3/4 451/3/4 459/3/4
f 457/3/4 458/3/4 459/3/4
f 451/3/4 457/3/4 459/3/4
f 459/3/4 458/3/4 460/3/4
f 463/3/5 462/3/5 461/3/5
f 464/3/5 462/3/5 463/3/5
f 467/3/5 466/3/5 465/3/5
f 468/3/5 466/3/5 467/3/5
f 471/3/5 470/3/5 469/3/5
f 472/3/5 470/3/5 471/3/5
f 473/3/6 474/3/6 475/3/6
f 475/3/6 474/3/6 476/3/6
f 477/3/6 478/3/6 479/3/6
f 479/3/6 478/3/6 480/3/6
f 481/3/6 482/3/6 483/3/6
f 483/3/6 482/3/6 484/3/6
f 481/3/6 483/3/6 485/3/6
f 485/3/6 483/3/6 486/3/6
f 487/3/6 488/3/6 489/3/6
f 487/3/6 489/3/6 491/3/6
f 489/3/6 490/3/6 491/3/6
f 491/3/6 490/3/6 492/3/6
f 487/3/6 491/3/6 493/3/6
f 487/3/6 493/3/6 495/3/6
f 493/3/6 494/3/6 495/3/6
f 495/3/6 494/3/6 496/3/6
f 496/3/6 494/3/6 497/3/6
f 497/3/6 494/3/6 498/3/6
f 499/3/6 500/3/6 502/3/6
f 502/3/6 500/3/6 503/3/6
f 503/3/6 500/3/6 504/3/6
f 501/3/6 502/3/6 506/3/6
f 502/3/6 503/3/6 506/3/6
f 506/3/6 503/3/6 507/3/6
f 507/3/6 503/3/6 508/3/6
f 505/3/6 506/3/6 509/3/6
f 506/3/6 507/3/6 509/3/6
f 509/3/6 507/3/6 510/3/6
f 510/3/6 507/3/6 511/3/6
f 511/3/6 507/3/6 512/3/6
f 513/2/6 514/2/6 515/2/6
f 515/2/6 514/2/6 516/2/6
f 517/3/6 518/3/6 519/3/6
f 519/3/6 518/3/6 520/3/6
f 521/3/6 522/3/6 523/3/6
f 521/3/6 523/3/6 527/3/6
f 524/3/6 525/3/6 527/3/6
f 523/3/6 524/3/6 527/3/6
f 527/3/6 525/3/6 528/3/6
f 528/3/6 525/3/6 529/3/6
f 526/3/6 527/3/6 530/3/6
f 527/3/6 528/3/6 530/3/6
f 530/3/6 528/3/6 531/3/6
f 531/3/6 528/3/6 532/3/6
f 532/3/6 528/3/6 533/3/6
f 531/3/6 532/3/6 534/3/6
f 531/3/6 534/3/6 536/3/6
f 534/3/6 535/3/6 536/3/6
f 536/3/6 535/3/6 537/3/6
f 531/3/6 536/3/6 538/3/6
f 538/3/6 536/3/6 539/3/6
f 538/3/6 539/3/6 542/3/6
f 539/3/6 540/3/6 542/3/6
f 542/3/6 540/3/6 543/3/6
f 541/3/6 542/3/6 545/3/6
f 542/1/6 543/1/6 546/1/6
f 545/3/6 542/3/6 546/3/6
f 543/1/6 544/1/6 546/1/6
f 546/1/6 544/1/6 547/1/6
f 548/3/6 549/3/6 550/3/6
f 550/3/6 549/3/6 551/3/6
f 552/2/6 553/2/6 555/2/6
f 553/3/6 554/3/6 556/3/6
f 555/2/6 553/2/6 556/2/6
f 556/3/6 554/3/6 557/3/6
f 558/3/6 559/3/6 562/3/6
f 559/3/6 560/3/6 562/3/6
f 561/3/6 562/3/6 563/3/6
f 563/3/6 562/3/6 564/3/6
f 562/3/6 560/3/6 565/3/6
f 564/3/6 562/3/6 565/3/6
f 565/3/6 560/3/6 566/3/6
f 564/3/6 565/3/6 568/3/6
f 568/3/6 565/3/6 569/3/6
f 567/3/6 568/3/6 570/3/6
f 570/3/6 568/3/6 571/3/6
f 571/3/6 572/3/6 573/3/6
f 573/3/6 572/3/6 574/3/6
f 574/3/6 575/3/6 576/3/6
f 576/3/6 575/3/6 577/3/6
f 578/3/6 579/3/6 580/3/6
f 578/3/6 580/3/6 582/3/6
f 580/3/6 581/3/6 582/3/6
f 582/3/6 581/3/6 583/3/6
f 578/3/6 582/3/6 584/3/6
f 584/3/6 582/3/6 585/3/6
f 585/3/6 586/3/6 587/3/6
f 587/3/6 586/3/6 588/3/6
f 589/3/6 590/3/6 592/3/6
f 591/3/6 592/3/6 594/3/6
f 592/3/6 590/3/6 595/3/6
f 594/3/6 592/3/6 595/3/6
f 595/3/6 590/3/6 596/3/6
f 593/3/6 594/3/6 599/3/6
f 594/3/6 595/3/6 599/3/6
f 599/3/6 595/3/6 600/3/6
f 600/3/6 595/3/6 601/3/6
f 597/2/6 598/2/6 603/2/6
f 603/2/6 598/2/6 604/2/6
f 601/3/6 602/3/6 605/3/6
f 600/3/6 601/3/6 605/3/6
f 605/3/6 602/3/6 606/3/6
f 606/3/6 602/3/6 607/3/6
f 607/3/6 602/3/6 608/3/6
f 606/1/6 607/1/6 609/1/6
f 609/1/6 607/1/6 610/1/6
f 611/3/6 612/3/6 613/3/6
f 613/3/6 612/3/6 614/3/6
f 615/3/6 616/3/6 618/3/6
f 616/3/6 617/3/6 618/3/6
f 618/3/6 617/3/6 619/3/6
f 619/3/6 617/3/6 620/3/6
f 620/3/6 621/3/6 623/3/6
f 623/3/6 621/3/6 624/3/6
f 622/3/6 623/3/6 625/3/6
f 625/3/6 623/3/6 626/3/6
f 627/2/6 628/2/6 630/2/6
f 628/3/6 629/3/6 631/3/6
f 630/2/6 628/2/6 631/2/6
f 631/3/6 629/3/6 633/3/6
f 633/3/6 629/3/6 634/3/6
f 632/3/6 633/3/6 635/3/6
f 635/3/6 633/3/6 636/3/6
f 637/1/6 638/1/6 640/1/6
f 638/3/6 639/3/6 641/3/6
f 640/1/6 638/1/6 641/1/6
f 641/3/6 639/3/6 642/3/6
f 640/3/6 641/3/6 644/3/6
f 642/3/6 643/3/6 644/3/6
f 641/3/6 642/3/6 644/3/6
f 644/3/6 643/3/6 645/3/6
f 645/3/6 643/3/6 647/3/6
f 647/3/6 643/3/6 648/3/6
f 646/2/6 647/2/6 649/2/6
f 649/2/6 647/2/6 650/2/6
f 648/3/6 643/3/6 651/3/6
f 650/3/6 651/3/6 652/3/6
f 651/3/6 643/3/6 653/3/6
f 652/3/6 651/3/6 653/3/6
f 652/1/6 653/1/6 654/1/6
f 654/1/6 653/1/6 655/1/6
f 655/1/6 653/1/6 656/1/6
f 655/3/6 656/3/6 657/3/6
f 657/3/6 656/3/6 658/3/6
f 659/3/6 660/3/6 661/3/6
f 661/3/6 660/3/6 662/3/6
f 663/3/6 664/3/6 665/3/6
f 665/3/6 664/3/6 666/3/6
f 667/3/6 668/3/6 669/3/6
f 669/3/6 668/3/6 670/3/6
