# MagicaVoxel @ Ephtracy

# group
o 

# material
mtllib trapdoor (broken).mtl
usemtl palette

# normals
vn -1 0 0
vn 1 0 0
vn 0 0 1
vn 0 0 -1
vn 0 -1 0
vn 0 1 0

# texcoords
vt 0.962891 0.5
vt 0.990234 0.5

# verts
v -0.5 0 0.5
v -0.5 0 0.1
v -0.5 0 -0.5
v -0.5 0.1 0.2
v -0.5 0.1 0.1
v -0.5 0.3 -0.2
v -0.5 0.3 -0.5
v -0.5 0.4 0.2
v -0.5 0.4 -0.2
v -0.5 0.6 0.5
v -0.5 0.6 -0.5
v -0.3 0.5 -0.3
v -0.3 0.5 -0.4
v -0.3 0.6 -0.3
v -0.3 0.6 -0.4
v -0.2 0.1 -0.1
v -0.2 0.1 -0.3
v -0.2 0.2 -0.1
v -0.2 0.2 -0.3
v -0.1 0.1 -0.3
v -0.1 0.1 -0.4
v -0.1 0.2 -0.3
v -0.1 0.3 -0.2
v -0.1 0.3 -0.3
v -0.1 0.3 -0.4
v -0.1 0.4 -0.2
v -0.1 0.4 -0.3
v -0.1 0.5 -0.3
v -0.1 0.5 -0.4
v -0.1 0.6 -0.3
v -0.1 0.6 -0.4
v 0 0.2 -0.2
v 0 0.2 -0.3
v 0 0.3 -0.2
v 0 0.3 -0.3
v 0 0.4 0.4
v 0 0.4 0.3
v 0 0.5 0.4
v 0 0.5 0.3
v 0 0.6 0.4
v 0 0.6 0.3
v 0.1 0.4 -0.2
v 0.1 0.4 -0.3
v 0.1 0.5 0.3
v 0.1 0.5 0.2
v 0.1 0.5 -0.2
v 0.1 0.5 -0.3
v 0.1 0.5 -0.4
v 0.1 0.6 0.3
v 0.1 0.6 0.2
v 0.1 0.6 -0.3
v 0.1 0.6 -0.4
v 0.2 0.1 0.1
v 0.2 0.1 -0.1
v 0.2 0.2 0.2
v 0.2 0.2 0.1
v 0.2 0.2 -0.1
v 0.2 0.2 -0.2
v 0.2 0.3 0.3
v 0.2 0.3 0.2
v 0.2 0.3 0.1
v 0.2 0.4 0
v 0.2 0.4 -0.1
v 0.2 0.5 0.4
v 0.2 0.5 0.3
v 0.2 0.5 0.2
v 0.2 0.5 0.1
v 0.2 0.5 0
v 0.2 0.5 -0.1
v 0.2 0.5 -0.2
v 0.2 0.5 -0.3
v 0.2 0.6 0.4
v 0.2 0.6 0.3
v 0.2 0.6 0.2
v 0.2 0.6 0.1
v 0.2 0.6 0
v 0.2 0.6 -0.1
v 0.2 0.6 -0.2
v 0.2 0.6 -0.3
v 0.3 0.2 0.1
v 0.3 0.2 -0.1
v 0.3 0.3 0.2
v 0.3 0.3 0.1
v 0.3 0.4 0
v 0.3 0.4 -0.1
v 0.3 0.5 0.3
v 0.3 0.5 0.2
v 0.3 0.5 0.1
v 0.3 0.5 0
v 0.3 0.5 -0.1
v 0.3 0.5 -0.2
v 0.3 0.5 -0.3
v 0.3 0.5 -0.4
v 0.3 0.6 0.3
v 0.3 0.6 0.2
v 0.3 0.6 0.1
v 0.3 0.6 0
v 0.3 0.6 -0.1
v 0.3 0.6 -0.2
v 0.3 0.6 -0.3
v 0.3 0.6 -0.4
v 0.4 0.5 0.4
v 0.4 0.5 0.3
v 0.4 0.5 0.2
v 0.4 0.5 0.1
v 0.4 0.5 0
v 0.4 0.5 -0.1
v 0.4 0.5 -0.2
v 0.4 0.5 -0.3
v 0.4 0.6 0.4
v 0.4 0.6 0.3
v 0.4 0.6 0.2
v 0.4 0.6 0.1
v 0.4 0.6 0
v 0.4 0.6 -0.1
v 0.4 0.6 -0.2
v 0.4 0.6 -0.3
v -0.4 0.1 -0.1
v -0.4 0.1 -0.3
v -0.4 0.3 -0.1
v -0.4 0.3 -0.3
v -0.4 0.5 0.3
v -0.4 0.5 0.2
v -0.4 0.5 0.1
v -0.4 0.5 0
v -0.4 0.5 -0.1
v -0.4 0.5 -0.2
v -0.4 0.5 -0.3
v -0.4 0.5 -0.4
v -0.4 0.6 0.3
v -0.4 0.6 0.2
v -0.4 0.6 0.1
v -0.4 0.6 0
v -0.4 0.6 -0.1
v -0.4 0.6 -0.2
v -0.4 0.6 -0.3
v -0.4 0.6 -0.4
v -0.3 0.1 0
v -0.3 0.1 -0.1
v -0.3 0.1 -0.3
v -0.3 0.1 -0.4
v -0.3 0.2 0.1
v -0.3 0.2 0
v -0.3 0.3 -0.1
v -0.3 0.3 -0.3
v -0.3 0.3 -0.4
v -0.3 0.4 0.3
v -0.3 0.4 0.1
v -0.3 0.4 -0.3
v -0.3 0.5 0.4
v -0.3 0.5 0.3
v -0.3 0.5 0.2
v -0.3 0.5 0.1
v -0.3 0.5 0
v -0.3 0.5 -0.1
v -0.3 0.5 -0.2
v -0.3 0.5 -0.3
v -0.3 0.6 0.4
v -0.3 0.6 0.3
v -0.3 0.6 0.2
v -0.3 0.6 0.1
v -0.3 0.6 0
v -0.3 0.6 -0.1
v -0.3 0.6 -0.2
v -0.3 0.6 -0.3
v -0.2 0.1 0.1
v -0.2 0.1 0
v -0.2 0.2 0.2
v -0.2 0.2 0.1
v -0.2 0.2 0
v -0.2 0.3 0.3
v -0.2 0.3 0.2
v -0.2 0.4 0.4
v -0.2 0.4 0.3
v -0.2 0.4 0.1
v -0.2 0.4 -0.2
v -0.2 0.5 0.4
v -0.2 0.5 0.3
v -0.2 0.5 0.1
v -0.2 0.5 -0.2
v -0.2 0.5 -0.3
v -0.2 0.5 -0.4
v -0.2 0.6 -0.3
v -0.2 0.6 -0.4
v -0.1 0.4 -0.2
v -0.1 0.4 -0.3
v -0.1 0.5 -0.2
v -0.1 0.5 -0.3
v 0 0.5 -0.3
v 0 0.5 -0.4
v 0 0.6 -0.3
v 0 0.6 -0.4
v 0.1 0.5 0.4
v 0.1 0.5 0.3
v 0.1 0.6 0.4
v 0.1 0.6 0.3
v 0.2 0.5 0.3
v 0.2 0.5 0.2
v 0.2 0.5 -0.3
v 0.2 0.5 -0.4
v 0.2 0.6 0.3
v 0.2 0.6 0.2
v 0.2 0.6 -0.3
v 0.2 0.6 -0.4
v 0.3 0.5 0.4
v 0.3 0.5 0.3
v 0.3 0.5 0.2
v 0.3 0.5 0.1
v 0.3 0.5 0
v 0.3 0.5 -0.1
v 0.3 0.5 -0.2
v 0.3 0.5 -0.3
v 0.3 0.6 0.4
v 0.3 0.6 0.3
v 0.3 0.6 0.2
v 0.3 0.6 0.1
v 0.3 0.6 0
v 0.3 0.6 -0.1
v 0.3 0.6 -0.2
v 0.3 0.6 -0.3
v 0.5 0 0.5
v 0.5 0 -0.5
v 0.5 0.1 0.2
v 0.5 0.1 0
v 0.5 0.2 0
v 0.5 0.2 -0.1
v 0.5 0.3 0.2
v 0.5 0.3 0.1
v 0.5 0.4 0.1
v 0.5 0.4 -0.1
v 0.5 0.6 0.5
v 0.5 0.6 -0.5
v -0.5 0 0.5
v -0.5 0.6 0.5
v -0.3 0.3 0.5
v -0.3 0.5 0.5
v -0.2 0.2 0.5
v -0.2 0.3 0.5
v -0.2 0.5 0.5
v -0.2 0.6 0.5
v 0 0.2 0.5
v 0 0.3 0.5
v 0 0.5 0.5
v 0 0.6 0.5
v 0.1 0.3 0.5
v 0.1 0.5 0.5
v 0.5 0 0.5
v 0.5 0.6 0.5
v 0.1 0.5 0.3
v 0.1 0.6 0.3
v 0.2 0.5 0.3
v 0.2 0.6 0.3
v 0.3 0.5 0.3
v 0.3 0.6 0.3
v 0.4 0.5 0.3
v 0.4 0.6 0.3
v -0.4 0.5 0.2
v -0.4 0.6 0.2
v -0.3 0.5 0.2
v -0.3 0.6 0.2
v 0.2 0.5 0.2
v 0.2 0.6 0.2
v 0.3 0.5 0.2
v 0.3 0.6 0.2
v -0.3 0.4 0.1
v -0.3 0.5 0.1
v -0.2 0.4 0.1
v -0.2 0.5 0.1
v 0.3 0.5 0.1
v 0.3 0.6 0.1
v 0.4 0.5 0.1
v 0.4 0.6 0.1
v -0.4 0.5 0
v -0.4 0.6 0
v -0.3 0.5 0
v -0.3 0.6 0
v 0.2 0.4 0
v 0.2 0.5 0
v 0.2 0.6 0
v 0.3 0.4 0
v 0.3 0.5 0
v 0.3 0.6 0
v -0.2 0.1 -0.1
v -0.2 0.2 -0.1
v 0.2 0.1 -0.1
v 0.2 0.2 -0.1
v 0.2 0.4 -0.1
v 0.3 0.2 -0.1
v 0.3 0.4 -0.1
v 0.3 0.5 -0.1
v 0.3 0.6 -0.1
v 0.4 0.5 -0.1
v 0.4 0.6 -0.1
v -0.4 0.5 -0.2
v -0.4 0.6 -0.2
v -0.3 0.5 -0.2
v -0.3 0.6 -0.2
v -0.2 0.4 -0.2
v -0.2 0.5 -0.2
v -0.1 0.3 -0.2
v -0.1 0.4 -0.2
v -0.1 0.5 -0.2
v 0 0.2 -0.2
v 0 0.3 -0.2
v 0.1 0.4 -0.2
v 0.1 0.5 -0.2
v 0.2 0.2 -0.2
v 0.2 0.5 -0.2
v 0.2 0.6 -0.2
v 0.3 0.5 -0.2
v 0.3 0.6 -0.2
v -0.4 0.1 -0.3
v -0.4 0.3 -0.3
v -0.3 0.1 -0.3
v -0.3 0.3 -0.3
v -0.3 0.4 -0.3
v -0.3 0.5 -0.3
v -0.3 0.6 -0.3
v -0.2 0.5 -0.3
v -0.2 0.6 -0.3
v -0.1 0.2 -0.3
v -0.1 0.3 -0.3
v -0.1 0.4 -0.3
v -0.1 0.5 -0.3
v -0.1 0.6 -0.3
v 0 0.2 -0.3
v 0 0.3 -0.3
v 0 0.4 -0.3
v 0 0.5 -0.3
v 0 0.6 -0.3
v 0.1 0.4 -0.3
v 0.1 0.5 -0.3
v 0.1 0.6 -0.3
v 0.2 0.5 -0.3
v 0.2 0.6 -0.3
v 0.3 0.5 -0.3
v 0.3 0.6 -0.3
v 0.4 0.5 -0.3
v 0.4 0.6 -0.3
v -0.4 0.5 -0.4
v -0.4 0.6 -0.4
v -0.3 0.1 -0.4
v -0.3 0.3 -0.4
v -0.3 0.5 -0.4
v -0.3 0.6 -0.4
v -0.2 0.5 -0.4
v -0.2 0.6 -0.4
v -0.1 0.1 -0.4
v -0.1 0.3 -0.4
v -0.1 0.5 -0.4
v -0.1 0.6 -0.4
v 0 0.5 -0.4
v 0 0.6 -0.4
v 0.1 0.5 -0.4
v 0.1 0.6 -0.4
v 0.2 0.5 -0.4
v 0.2 0.6 -0.4
v 0.3 0.5 -0.4
v 0.3 0.6 -0.4
v -0.3 0.5 0.4
v -0.3 0.6 0.4
v -0.2 0.4 0.4
v -0.2 0.5 0.4
v -0.2 0.6 0.4
v 0 0.4 0.4
v 0 0.5 0.4
v 0 0.6 0.4
v 0.1 0.5 0.4
v 0.1 0.6 0.4
v 0.2 0.5 0.4
v 0.2 0.6 0.4
v 0.3 0.5 0.4
v 0.3 0.6 0.4
v 0.4 0.5 0.4
v 0.4 0.6 0.4
v -0.4 0.5 0.3
v -0.4 0.6 0.3
v -0.3 0.4 0.3
v -0.3 0.5 0.3
v -0.3 0.6 0.3
v -0.2 0.3 0.3
v -0.2 0.4 0.3
v -0.2 0.5 0.3
v 0 0.4 0.3
v 0 0.5 0.3
v 0 0.6 0.3
v 0.1 0.5 0.3
v 0.1 0.6 0.3
v 0.2 0.3 0.3
v 0.2 0.5 0.3
v 0.2 0.6 0.3
v 0.3 0.5 0.3
v 0.3 0.6 0.3
v -0.2 0.2 0.2
v -0.2 0.3 0.2
v 0.1 0.5 0.2
v 0.1 0.6 0.2
v 0.2 0.2 0.2
v 0.2 0.3 0.2
v 0.2 0.5 0.2
v 0.2 0.6 0.2
v 0.3 0.3 0.2
v 0.3 0.5 0.2
v 0.3 0.6 0.2
v 0.4 0.5 0.2
v 0.4 0.6 0.2
v -0.4 0.5 0.1
v -0.4 0.6 0.1
v -0.3 0.2 0.1
v -0.3 0.4 0.1
v -0.3 0.5 0.1
v -0.3 0.6 0.1
v -0.2 0.1 0.1
v -0.2 0.2 0.1
v -0.2 0.4 0.1
v 0.2 0.1 0.1
v 0.2 0.2 0.1
v 0.2 0.3 0.1
v 0.2 0.5 0.1
v 0.2 0.6 0.1
v 0.3 0.2 0.1
v 0.3 0.3 0.1
v 0.3 0.5 0.1
v 0.3 0.6 0.1
v -0.3 0.1 0
v -0.3 0.2 0
v -0.2 0.1 0
v -0.2 0.2 0
v 0.3 0.5 0
v 0.3 0.6 0
v 0.4 0.5 0
v 0.4 0.6 0
v -0.4 0.1 -0.1
v -0.4 0.3 -0.1
v -0.4 0.5 -0.1
v -0.4 0.6 -0.1
v -0.3 0.1 -0.1
v -0.3 0.3 -0.1
v -0.3 0.5 -0.1
v -0.3 0.6 -0.1
v 0.2 0.5 -0.1
v 0.2 0.6 -0.1
v 0.3 0.5 -0.1
v 0.3 0.6 -0.1
v 0.3 0.5 -0.2
v 0.3 0.6 -0.2
v 0.4 0.5 -0.2
v 0.4 0.6 -0.2
v -0.4 0.5 -0.3
v -0.4 0.6 -0.3
v -0.3 0.5 -0.3
v -0.3 0.6 -0.3
v -0.2 0.1 -0.3
v -0.2 0.2 -0.3
v -0.1 0.1 -0.3
v -0.1 0.2 -0.3
v 0.2 0.5 -0.3
v 0.2 0.6 -0.3
v 0.3 0.5 -0.3
v 0.3 0.6 -0.3
v -0.5 0 -0.5
v -0.5 0.3 -0.5
v -0.5 0.6 -0.5
v -0.4 0.3 -0.5
v -0.4 0.4 -0.5
v -0.2 0.3 -0.5
v -0.2 0.4 -0.5
v -0.1 0 -0.5
v -0.1 0.1 -0.5
v 0 0.1 -0.5
v 0 0.3 -0.5
v 0.5 0 -0.5
v 0.5 0.6 -0.5
v -0.5 0 0.5
v 0.5 0 0.5
v -0.3 0 0.3
v 0.1 0 0.3
v -0.4 0 0.2
v -0.3 0 0.2
v 0.1 0 0.2
v 0.4 0 0.2
v -0.5 0 0.1
v -0.4 0 0.1
v 0.3 0 0
v 0.4 0 0
v 0.2 0 -0.1
v 0.3 0 -0.1
v 0.1 0 -0.3
v 0.2 0 -0.3
v -0.1 0 -0.4
v 0.1 0 -0.4
v -0.5 0 -0.5
v -0.1 0 -0.5
v 0.5 0 -0.5
v -0.4 0.3 -0.1
v -0.3 0.3 -0.1
v -0.1 0.3 -0.2
v 0 0.3 -0.2
v -0.4 0.3 -0.3
v -0.3 0.3 -0.3
v -0.1 0.3 -0.3
v 0 0.3 -0.3
v -0.3 0.3 -0.4
v -0.1 0.3 -0.4
v -0.3 0.4 0.1
v -0.2 0.4 0.1
v 0.2 0.4 0
v 0.3 0.4 0
v 0.2 0.4 -0.1
v 0.3 0.4 -0.1
v -0.2 0.4 -0.2
v -0.1 0.4 -0.2
v -0.3 0.4 -0.3
v -0.1 0.4 -0.3
v 0.1 0.5 0.3
v 0.2 0.5 0.3
v 0.1 0.5 0.2
v 0.2 0.5 0.2
v 0.3 0.5 0.2
v 0.2 0.5 0.1
v 0.3 0.5 0.1
v -0.2 0.1 0.1
v 0.2 0.1 0.1
v -0.3 0.1 0
v -0.2 0.1 0
v -0.4 0.1 -0.1
v -0.3 0.1 -0.1
v -0.2 0.1 -0.1
v 0.2 0.1 -0.1
v -0.4 0.1 -0.3
v -0.3 0.1 -0.3
v -0.2 0.1 -0.3
v -0.1 0.1 -0.3
v -0.3 0.1 -0.4
v -0.1 0.1 -0.4
v -0.2 0.2 0.2
v 0.2 0.2 0.2
v -0.3 0.2 0.1
v -0.2 0.2 0.1
v 0.2 0.2 0.1
v 0.3 0.2 0.1
v -0.3 0.2 0
v -0.2 0.2 0
v -0.2 0.2 -0.1
v 0.2 0.2 -0.1
v 0.3 0.2 -0.1
v 0 0.2 -0.2
v 0.2 0.2 -0.2
v -0.2 0.2 -0.3
v -0.1 0.2 -0.3
v 0 0.2 -0.3
v -0.2 0.3 0.3
v 0.2 0.3 0.3
v -0.2 0.3 0.2
v 0.2 0.3 0.2
v 0.3 0.3 0.2
v 0.2 0.3 0.1
v 0.3 0.3 0.1
v -0.2 0.4 0.4
v 0 0.4 0.4
v -0.3 0.4 0.3
v -0.2 0.4 0.3
v 0 0.4 0.3
v -0.3 0.4 0.1
v -0.2 0.4 0.1
v -0.1 0.4 -0.2
v 0.1 0.4 -0.2
v -0.1 0.4 -0.3
v 0 0.4 -0.3
v 0.1 0.4 -0.3
v -0.3 0.5 0.4
v -0.2 0.5 0.4
v 0.1 0.5 0.4
v 0.2 0.5 0.4
v 0.3 0.5 0.4
v 0.4 0.5 0.4
v -0.4 0.5 0.3
v -0.3 0.5 0.3
v -0.2 0.5 0.3
v 0.1 0.5 0.3
v 0.2 0.5 0.3
v 0.3 0.5 0.3
v 0.4 0.5 0.3
v -0.4 0.5 0.2
v -0.3 0.5 0.2
v 0.2 0.5 0.2
v 0.3 0.5 0.2
v 0.4 0.5 0.2
v -0.4 0.5 0.1
v -0.3 0.5 0.1
v -0.2 0.5 0.1
v 0.3 0.5 0.1
v 0.4 0.5 0.1
v -0.4 0.5 0
v -0.3 0.5 0
v 0.3 0.5 0
v 0.4 0.5 0
v -0.4 0.5 -0.1
v -0.3 0.5 -0.1
v 0.2 0.5 -0.1
v 0.3 0.5 -0.1
v 0.4 0.5 -0.1
v -0.4 0.5 -0.2
v -0.3 0.5 -0.2
v -0.2 0.5 -0.2
v -0.1 0.5 -0.2
v 0.1 0.5 -0.2
v 0.2 0.5 -0.2
v 0.3 0.5 -0.2
v 0.4 0.5 -0.2
v -0.4 0.5 -0.3
v -0.3 0.5 -0.3
v -0.2 0.5 -0.3
v -0.1 0.5 -0.3
v 0 0.5 -0.3
v 0.1 0.5 -0.3
v 0.2 0.5 -0.3
v 0.3 0.5 -0.3
v 0.4 0.5 -0.3
v -0.4 0.5 -0.4
v -0.3 0.5 -0.4
v -0.2 0.5 -0.4
v -0.1 0.5 -0.4
v 0 0.5 -0.4
v 0.1 0.5 -0.4
v 0.2 0.5 -0.4
v 0.3 0.5 -0.4
v -0.5 0.6 0.5
v -0.2 0.6 0.5
v 0 0.6 0.5
v 0.5 0.6 0.5
v -0.3 0.6 0.4
v -0.2 0.6 0.4
v 0 0.6 0.4
v 0.1 0.6 0.4
v 0.2 0.6 0.4
v 0.3 0.6 0.4
v 0.4 0.6 0.4
v -0.4 0.6 0.3
v -0.3 0.6 0.3
v 0 0.6 0.3
v 0.1 0.6 0.3
v 0.2 0.6 0.3
v 0.3 0.6 0.3
v 0.4 0.6 0.3
v -0.4 0.6 0.2
v -0.3 0.6 0.2
v 0.1 0.6 0.2
v 0.2 0.6 0.2
v 0.3 0.6 0.2
v 0.4 0.6 0.2
v -0.4 0.6 0.1
v -0.3 0.6 0.1
v 0.2 0.6 0.1
v 0.3 0.6 0.1
v 0.4 0.6 0.1
v -0.4 0.6 0
v -0.3 0.6 0
v 0.2 0.6 0
v 0.3 0.6 0
v 0.4 0.6 0
v -0.4 0.6 -0.1
v -0.3 0.6 -0.1
v 0.2 0.6 -0.1
v 0.3 0.6 -0.1
v 0.4 0.6 -0.1
v -0.4 0.6 -0.2
v -0.3 0.6 -0.2
v 0.2 0.6 -0.2
v 0.3 0.6 -0.2
v 0.4 0.6 -0.2
v -0.4 0.6 -0.3
v -0.3 0.6 -0.3
v -0.2 0.6 -0.3
v -0.1 0.6 -0.3
v 0 0.6 -0.3
v 0.1 0.6 -0.3
v 0.2 0.6 -0.3
v 0.3 0.6 -0.3
v 0.4 0.6 -0.3
v -0.4 0.6 -0.4
v -0.3 0.6 -0.4
v -0.2 0.6 -0.4
v -0.1 0.6 -0.4
v 0 0.6 -0.4
v 0.1 0.6 -0.4
v 0.2 0.6 -0.4
v 0.3 0.6 -0.4
v -0.5 0.6 -0.5
v 0.5 0.6 -0.5

# faces
f 4/2/1 2/2/1 1/2/1
f 5/1/1 3/1/1 2/1/1
f 5/2/1 2/2/1 4/2/1
f 6/1/1 5/1/1 4/1/1
f 6/1/1 3/1/1 5/1/1
f 7/1/1 3/1/1 6/1/1
f 8/2/1 4/2/1 1/2/1
f 8/1/1 6/1/1 4/1/1
f 9/2/1 7/2/1 6/2/1
f 9/1/1 6/1/1 8/1/1
f 10/2/1 8/2/1 1/2/1
f 10/2/1 9/2/1 8/2/1
f 11/2/1 7/2/1 9/2/1
f 11/2/1 9/2/1 10/2/1
f 14/2/1 13/2/1 12/2/1
f 15/2/1 13/2/1 14/2/1
f 18/1/1 17/1/1 16/1/1
f 19/1/1 17/1/1 18/1/1
f 22/1/1 21/1/1 20/1/1
f 24/1/1 21/1/1 22/1/1
f 25/1/1 21/1/1 24/1/1
f 26/1/1 24/1/1 23/1/1
f 27/1/1 24/1/1 26/1/1
f 30/2/1 29/2/1 28/2/1
f 31/2/1 29/2/1 30/2/1
f 34/1/1 33/1/1 32/1/1
f 35/1/1 33/1/1 34/1/1
f 38/1/1 37/1/1 36/1/1
f 39/1/1 37/1/1 38/1/1
f 40/2/1 39/2/1 38/2/1
f 41/2/1 39/2/1 40/2/1
f 46/1/1 43/1/1 42/1/1
f 47/1/1 43/1/1 46/1/1
f 49/2/1 45/2/1 44/2/1
f 50/2/1 45/2/1 49/2/1
f 51/2/1 48/2/1 47/2/1
f 52/2/1 48/2/1 51/2/1
f 56/1/1 54/1/1 53/1/1
f 57/1/1 54/1/1 56/1/1
f 60/1/1 56/1/1 55/1/1
f 61/1/1 56/1/1 60/1/1
f 63/1/1 58/1/1 57/1/1
f 65/1/1 60/1/1 59/1/1
f 66/1/1 60/1/1 65/1/1
f 68/1/1 63/1/1 62/1/1
f 69/1/1 58/1/1 63/1/1
f 69/1/1 63/1/1 68/1/1
f 70/1/1 58/1/1 69/1/1
f 72/2/1 65/2/1 64/2/1
f 73/2/1 65/2/1 72/2/1
f 74/2/1 67/2/1 66/2/1
f 75/2/1 67/2/1 74/2/1
f 76/2/1 69/2/1 68/2/1
f 77/2/1 69/2/1 76/2/1
f 78/2/1 71/2/1 70/2/1
f 79/2/1 71/2/1 78/2/1
f 83/1/1 81/1/1 80/1/1
f 84/1/1 81/1/1 83/1/1
f 84/1/1 83/1/1 82/1/1
f 85/1/1 81/1/1 84/1/1
f 87/1/1 84/1/1 82/1/1
f 88/1/1 84/1/1 87/1/1
f 89/1/1 84/1/1 88/1/1
f 94/2/1 87/2/1 86/2/1
f 95/2/1 87/2/1 94/2/1
f 96/2/1 89/2/1 88/2/1
f 97/2/1 89/2/1 96/2/1
f 98/2/1 91/2/1 90/2/1
f 99/2/1 91/2/1 98/2/1
f 100/2/1 93/2/1 92/2/1
f 101/2/1 93/2/1 100/2/1
f 110/2/1 103/2/1 102/2/1
f 111/2/1 103/2/1 110/2/1
f 112/2/1 105/2/1 104/2/1
f 113/2/1 105/2/1 112/2/1
f 114/2/1 107/2/1 106/2/1
f 115/2/1 107/2/1 114/2/1
f 116/2/1 109/2/1 108/2/1
f 117/2/1 109/2/1 116/2/1
f 118/1/2 119/1/2 120/1/2
f 120/1/2 119/1/2 121/1/2
f 122/2/2 123/2/2 130/2/2
f 130/2/2 123/2/2 131/2/2
f 124/2/2 125/2/2 132/2/2
f 132/2/2 125/2/2 133/2/2
f 126/2/2 127/2/2 134/2/2
f 134/2/2 127/2/2 135/2/2
f 128/2/2 129/2/2 136/2/2
f 136/2/2 129/2/2 137/2/2
f 138/1/2 139/1/2 143/1/2
f 143/1/2 139/1/2 144/1/2
f 142/1/2 143/1/2 144/1/2
f 140/1/2 141/1/2 145/1/2
f 145/1/2 141/1/2 146/1/2
f 142/1/2 144/1/2 148/1/2
f 144/1/2 145/1/2 148/1/2
f 148/1/2 145/1/2 149/1/2
f 147/1/2 148/1/2 151/1/2
f 151/1/2 148/1/2 152/1/2
f 152/1/2 148/1/2 153/1/2
f 150/2/2 151/2/2 158/2/2
f 158/2/2 151/2/2 159/2/2
f 152/2/2 153/2/2 160/2/2
f 160/2/2 153/2/2 161/2/2
f 154/2/2 155/2/2 162/2/2
f 162/2/2 155/2/2 163/2/2
f 156/2/2 157/2/2 164/2/2
f 164/2/2 157/2/2 165/2/2
f 166/1/2 167/1/2 169/1/2
f 169/1/2 167/1/2 170/1/2
f 168/1/2 169/1/2 172/1/2
f 171/1/2 172/1/2 174/1/2
f 172/1/2 169/1/2 175/1/2
f 174/1/2 172/1/2 175/1/2
f 173/1/2 174/1/2 177/1/2
f 177/1/2 174/1/2 178/1/2
f 175/1/2 176/1/2 179/1/2
f 179/1/2 176/1/2 180/1/2
f 181/2/2 182/2/2 183/2/2
f 183/2/2 182/2/2 184/2/2
f 185/1/2 186/1/2 187/1/2
f 187/1/2 186/1/2 188/1/2
f 189/2/2 190/2/2 191/2/2
f 191/2/2 190/2/2 192/2/2
f 193/2/2 194/2/2 195/2/2
f 195/2/2 194/2/2 196/2/2
f 197/2/2 198/2/2 201/2/2
f 201/2/2 198/2/2 202/2/2
f 199/2/2 200/2/2 203/2/2
f 203/2/2 200/2/2 204/2/2
f 205/2/2 206/2/2 213/2/2
f 213/2/2 206/2/2 214/2/2
f 207/2/2 208/2/2 215/2/2
f 215/2/2 208/2/2 216/2/2
f 209/2/2 210/2/2 217/2/2
f 217/2/2 210/2/2 218/2/2
f 211/2/2 212/2/2 219/2/2
f 219/2/2 212/2/2 220/2/2
f 221/2/2 222/2/2 223/2/2
f 223/2/2 222/2/2 224/2/2
f 223/1/2 224/1/2 225/1/2
f 224/2/2 222/2/2 225/2/2
f 225/2/2 222/2/2 226/2/2
f 221/2/2 223/2/2 227/2/2
f 223/1/2 225/1/2 227/1/2
f 225/1/2 226/1/2 227/1/2
f 227/1/2 226/1/2 228/1/2
f 227/2/2 228/2/2 229/2/2
f 228/1/2 226/1/2 229/1/2
f 226/2/2 222/2/2 230/2/2
f 229/1/2 226/1/2 230/1/2
f 227/2/2 229/2/2 231/2/2
f 221/2/2 227/2/2 231/2/2
f 229/2/2 230/2/2 231/2/2
f 230/2/2 222/2/2 232/2/2
f 231/2/2 230/2/2 232/2/2
f 235/2/3 234/2/3 233/2/3
f 236/2/3 234/2/3 235/2/3
f 237/2/3 235/2/3 233/2/3
f 238/1/3 236/1/3 235/1/3
f 238/2/3 235/2/3 237/2/3
f 239/2/3 234/2/3 236/2/3
f 239/1/3 236/1/3 238/1/3
f 240/2/3 234/2/3 239/2/3
f 241/1/3 238/1/3 237/1/3
f 241/2/3 237/2/3 233/2/3
f 241/1/3 240/1/3 239/1/3
f 241/1/3 239/1/3 238/1/3
f 242/1/3 240/1/3 241/1/3
f 243/1/3 240/1/3 242/1/3
f 244/1/3 240/1/3 243/1/3
f 245/2/3 242/2/3 241/2/3
f 245/1/3 243/1/3 242/1/3
f 246/2/3 244/2/3 243/2/3
f 246/1/3 243/1/3 245/1/3
f 247/2/3 241/2/3 233/2/3
f 247/2/3 245/2/3 241/2/3
f 247/2/3 246/2/3 245/2/3
f 248/2/3 244/2/3 246/2/3
f 248/2/3 246/2/3 247/2/3
f 251/2/3 250/2/3 249/2/3
f 252/2/3 250/2/3 251/2/3
f 255/2/3 254/2/3 253/2/3
f 256/2/3 254/2/3 255/2/3
f 259/2/3 258/2/3 257/2/3
f 260/2/3 258/2/3 259/2/3
f 263/2/3 262/2/3 261/2/3
f 264/2/3 262/2/3 263/2/3
f 267/1/3 266/1/3 265/1/3
f 268/1/3 266/1/3 267/1/3
f 271/2/3 270/2/3 269/2/3
f 272/2/3 270/2/3 271/2/3
f 275/2/3 274/2/3 273/2/3
f 276/2/3 274/2/3 275/2/3
f 280/1/3 278/1/3 277/1/3
f 281/2/3 279/2/3 278/2/3
f 281/1/3 278/1/3 280/1/3
f 282/2/3 279/2/3 281/2/3
f 285/1/3 284/1/3 283/1/3
f 286/1/3 284/1/3 285/1/3
f 288/1/3 287/1/3 286/1/3
f 289/1/3 287/1/3 288/1/3
f 292/2/3 291/2/3 290/2/3
f 293/2/3 291/2/3 292/2/3
f 296/2/3 295/2/3 294/2/3
f 297/2/3 295/2/3 296/2/3
f 301/1/3 299/1/3 298/1/3
f 302/1/3 299/1/3 301/1/3
f 304/1/3 301/1/3 300/1/3
f 305/1/3 301/1/3 304/1/3
f 305/1/3 304/1/3 303/1/3
f 307/1/3 305/1/3 303/1/3
f 307/1/3 306/1/3 305/1/3
f 308/1/3 306/1/3 307/1/3
f 310/2/3 309/2/3 308/2/3
f 311/2/3 309/2/3 310/2/3
f 314/1/3 313/1/3 312/1/3
f 315/1/3 313/1/3 314/1/3
f 319/2/3 318/2/3 317/2/3
f 320/2/3 318/2/3 319/2/3
f 322/1/3 316/1/3 315/1/3
f 323/1/3 316/1/3 322/1/3
f 326/1/3 322/1/3 321/1/3
f 327/1/3 322/1/3 326/1/3
f 328/2/3 325/2/3 324/2/3
f 328/2/3 324/2/3 323/2/3
f 329/2/3 325/2/3 328/2/3
f 330/2/3 325/2/3 329/2/3
f 331/1/3 329/1/3 328/1/3
f 332/1/3 329/1/3 331/1/3
f 334/2/3 333/2/3 332/2/3
f 335/2/3 333/2/3 334/2/3
f 338/2/3 337/2/3 336/2/3
f 339/2/3 337/2/3 338/2/3
f 344/2/3 341/2/3 340/2/3
f 345/2/3 341/2/3 344/2/3
f 348/1/3 343/1/3 342/1/3
f 349/1/3 343/1/3 348/1/3
f 350/2/3 347/2/3 346/2/3
f 351/2/3 347/2/3 350/2/3
f 354/2/3 353/2/3 352/2/3
f 355/2/3 353/2/3 354/2/3
f 358/2/3 357/2/3 356/2/3
f 359/2/3 357/2/3 358/2/3
f 360/2/4 361/2/4 363/2/4
f 363/2/4 361/2/4 364/2/4
f 362/1/4 363/1/4 365/1/4
f 363/1/4 364/1/4 365/1/4
f 365/1/4 364/1/4 366/1/4
f 366/1/4 364/1/4 367/1/4
f 368/2/4 369/2/4 370/2/4
f 370/2/4 369/2/4 371/2/4
f 372/2/4 373/2/4 374/2/4
f 374/2/4 373/2/4 375/2/4
f 376/2/4 377/2/4 379/2/4
f 379/2/4 377/2/4 380/2/4
f 378/1/4 379/1/4 382/1/4
f 382/1/4 379/1/4 383/1/4
f 381/1/4 382/1/4 384/1/4
f 384/1/4 385/1/4 387/1/4
f 385/2/4 386/2/4 387/2/4
f 387/2/4 386/2/4 388/2/4
f 381/1/4 384/1/4 389/1/4
f 384/1/4 387/1/4 389/1/4
f 389/1/4 387/1/4 390/1/4
f 390/2/4 391/2/4 392/2/4
f 392/2/4 391/2/4 393/2/4
f 394/1/4 395/1/4 398/1/4
f 398/1/4 395/1/4 399/1/4
f 396/2/4 397/2/4 400/2/4
f 400/2/4 397/2/4 401/2/4
f 399/1/4 400/1/4 402/1/4
f 402/1/4 400/1/4 403/1/4
f 403/2/4 404/2/4 405/2/4
f 405/2/4 404/2/4 406/2/4
f 407/2/4 408/2/4 411/2/4
f 411/2/4 408/2/4 412/2/4
f 409/1/4 410/1/4 414/1/4
f 414/1/4 410/1/4 415/1/4
f 413/1/4 414/1/4 416/1/4
f 416/1/4 414/1/4 417/1/4
f 417/1/4 418/1/4 421/1/4
f 421/1/4 418/1/4 422/1/4
f 419/2/4 420/2/4 423/2/4
f 423/2/4 420/2/4 424/2/4
f 425/1/4 426/1/4 427/1/4
f 427/1/4 426/1/4 428/1/4
f 429/2/4 430/2/4 431/2/4
f 431/2/4 430/2/4 432/2/4
f 433/1/4 434/1/4 437/1/4
f 437/1/4 434/1/4 438/1/4
f 435/2/4 436/2/4 439/2/4
f 439/2/4 436/2/4 440/2/4
f 441/2/4 442/2/4 443/2/4
f 443/2/4 442/2/4 444/2/4
f 445/2/4 446/2/4 447/2/4
f 447/2/4 446/2/4 448/2/4
f 449/2/4 450/2/4 451/2/4
f 451/2/4 450/2/4 452/2/4
f 453/1/4 454/1/4 455/1/4
f 455/1/4 454/1/4 456/1/4
f 457/2/4 458/2/4 459/2/4
f 459/2/4 458/2/4 460/2/4
f 461/1/4 462/1/4 464/1/4
f 462/2/4 463/2/4 464/2/4
f 464/2/4 463/2/4 465/2/4
f 461/1/4 464/1/4 466/1/4
f 464/1/4 465/1/4 466/1/4
f 465/2/4 463/2/4 467/2/4
f 466/1/4 465/1/4 467/1/4
f 461/1/4 466/1/4 468/1/4
f 468/1/4 466/1/4 469/1/4
f 468/2/4 469/2/4 470/2/4
f 469/1/4 466/1/4 470/1/4
f 466/2/4 467/2/4 471/2/4
f 470/1/4 466/1/4 471/1/4
f 468/2/4 470/2/4 472/2/4
f 470/2/4 471/2/4 472/2/4
f 467/2/4 463/2/4 473/2/4
f 472/2/4 471/2/4 473/2/4
f 471/2/4 467/2/4 473/2/4
f 476/2/5 475/2/5 474/2/5
f 477/2/5 475/2/5 476/2/5
f 478/2/5 476/2/5 474/2/5
f 479/1/5 477/1/5 476/1/5
f 479/2/5 476/2/5 478/2/5
f 480/2/5 475/2/5 477/2/5
f 480/1/5 477/1/5 479/1/5
f 481/2/5 475/2/5 480/2/5
f 482/2/5 478/2/5 474/2/5
f 483/1/5 479/1/5 478/1/5
f 483/2/5 478/2/5 482/2/5
f 483/1/5 480/1/5 479/1/5
f 483/1/5 481/1/5 480/1/5
f 484/1/5 483/1/5 482/1/5
f 484/1/5 481/1/5 483/1/5
f 485/2/5 475/2/5 481/2/5
f 485/1/5 481/1/5 484/1/5
f 486/1/5 484/1/5 482/1/5
f 487/2/5 485/2/5 484/2/5
f 487/1/5 484/1/5 486/1/5
f 488/1/5 486/1/5 482/1/5
f 489/2/5 487/2/5 486/2/5
f 489/1/5 486/1/5 488/1/5
f 490/1/5 488/1/5 482/1/5
f 491/2/5 489/2/5 488/2/5
f 491/1/5 488/1/5 490/1/5
f 492/1/5 490/1/5 482/1/5
f 493/2/5 491/2/5 490/2/5
f 493/1/5 490/1/5 492/1/5
f 494/2/5 475/2/5 485/2/5
f 494/2/5 491/2/5 493/2/5
f 494/2/5 485/2/5 487/2/5
f 494/2/5 487/2/5 489/2/5
f 494/2/5 489/2/5 491/2/5
f 499/1/5 496/1/5 495/1/5
f 500/1/5 496/1/5 499/1/5
f 501/1/5 498/1/5 497/1/5
f 502/1/5 498/1/5 501/1/5
f 503/1/5 501/1/5 500/1/5
f 504/1/5 501/1/5 503/1/5
f 509/1/5 508/1/5 507/1/5
f 510/1/5 508/1/5 509/1/5
f 511/1/5 506/1/5 505/1/5
f 513/1/5 511/1/5 505/1/5
f 513/1/5 512/1/5 511/1/5
f 514/1/5 512/1/5 513/1/5
f 517/2/5 516/2/5 515/2/5
f 518/2/5 516/2/5 517/2/5
f 520/2/5 519/2/5 518/2/5
f 521/2/5 519/2/5 520/2/5
f 522/1/6 523/1/6 525/1/6
f 524/1/6 525/1/6 527/1/6
f 525/1/6 523/1/6 528/1/6
f 527/1/6 525/1/6 528/1/6
f 528/1/6 523/1/6 529/1/6
f 526/1/6 527/1/6 530/1/6
f 527/1/6 528/1/6 530/1/6
f 530/1/6 528/1/6 531/1/6
f 531/1/6 528/1/6 532/1/6
f 532/1/6 533/1/6 534/1/6
f 531/1/6 532/1/6 534/1/6
f 534/1/6 533/1/6 535/1/6
f 536/1/6 537/1/6 539/1/6
f 539/1/6 537/1/6 540/1/6
f 538/1/6 539/1/6 542/1/6
f 542/1/6 539/1/6 543/1/6
f 540/1/6 541/1/6 545/1/6
f 545/1/6 541/1/6 546/1/6
f 544/1/6 545/1/6 547/1/6
f 547/1/6 545/1/6 548/1/6
f 544/1/6 547/1/6 549/1/6
f 549/1/6 547/1/6 550/1/6
f 550/1/6 547/1/6 551/1/6
f 552/1/6 553/1/6 554/1/6
f 554/1/6 553/1/6 555/1/6
f 555/1/6 556/1/6 557/1/6
f 557/1/6 556/1/6 558/1/6
f 559/1/6 560/1/6 562/1/6
f 562/1/6 560/1/6 563/1/6
f 561/1/6 562/1/6 564/1/6
f 564/1/6 562/1/6 565/1/6
f 566/1/6 567/1/6 568/1/6
f 568/1/6 567/1/6 569/1/6
f 569/1/6 567/1/6 570/1/6
f 571/1/6 572/1/6 578/1/6
f 578/1/6 572/1/6 579/1/6
f 573/1/6 574/1/6 580/1/6
f 580/1/6 574/1/6 581/1/6
f 575/1/6 576/1/6 582/1/6
f 582/1/6 576/1/6 583/1/6
f 577/1/6 578/1/6 584/1/6
f 584/1/6 578/1/6 585/1/6
f 581/1/6 582/1/6 586/1/6
f 586/1/6 582/1/6 587/1/6
f 587/1/6 588/1/6 592/1/6
f 592/1/6 588/1/6 593/1/6
f 590/1/6 591/1/6 594/1/6
f 589/1/6 590/1/6 594/1/6
f 594/1/6 591/1/6 595/1/6
f 595/1/6 591/1/6 599/1/6
f 596/1/6 597/1/6 601/1/6
f 601/1/6 597/1/6 602/1/6
f 598/1/6 599/1/6 603/1/6
f 599/1/6 591/1/6 604/1/6
f 603/1/6 599/1/6 604/1/6
f 604/1/6 591/1/6 605/1/6
f 600/1/6 601/1/6 608/1/6
f 608/1/6 601/1/6 609/1/6
f 605/1/6 606/1/6 612/1/6
f 604/1/6 605/1/6 612/1/6
f 612/1/6 606/1/6 613/1/6
f 613/1/6 606/1/6 614/1/6
f 607/1/6 608/1/6 616/1/6
f 616/1/6 608/1/6 617/1/6
f 609/1/6 610/1/6 618/1/6
f 618/1/6 610/1/6 619/1/6
f 611/1/6 612/1/6 620/1/6
f 620/1/6 612/1/6 621/1/6
f 613/1/6 614/1/6 622/1/6
f 622/1/6 614/1/6 623/1/6
f 615/1/6 616/1/6 624/1/6
f 624/1/6 616/1/6 625/1/6
f 617/1/6 618/1/6 626/1/6
f 626/1/6 618/1/6 627/1/6
f 628/2/6 629/2/6 632/2/6
f 629/1/6 630/1/6 633/1/6
f 632/2/6 629/2/6 633/2/6
f 630/2/6 631/2/6 634/2/6
f 633/1/6 630/1/6 634/1/6
f 634/2/6 631/2/6 635/2/6
f 635/2/6 631/2/6 636/2/6
f 636/2/6 631/2/6 637/2/6
f 637/2/6 631/2/6 638/2/6
f 628/2/6 632/2/6 639/2/6
f 639/2/6 632/2/6 640/2/6
f 634/2/6 635/2/6 641/2/6
f 641/2/6 635/2/6 642/2/6
f 636/2/6 637/2/6 643/2/6
f 643/2/6 637/2/6 644/2/6
f 638/2/6 631/2/6 645/2/6
f 628/2/6 639/2/6 646/2/6
f 642/2/6 643/2/6 648/2/6
f 648/2/6 643/2/6 649/2/6
f 644/2/6 645/2/6 650/2/6
f 645/2/6 631/2/6 651/2/6
f 650/2/6 645/2/6 651/2/6
f 646/2/6 647/2/6 652/2/6
f 628/2/6 646/2/6 652/2/6
f 652/2/6 647/2/6 653/2/6
f 649/2/6 650/2/6 654/2/6
f 654/2/6 650/2/6 655/2/6
f 651/2/6 631/2/6 656/2/6
f 628/2/6 652/2/6 657/2/6
f 655/2/6 656/2/6 660/2/6
f 656/2/6 631/2/6 661/2/6
f 660/2/6 656/2/6 661/2/6
f 657/2/6 658/2/6 662/2/6
f 628/2/6 657/2/6 662/2/6
f 662/2/6 658/2/6 663/2/6
f 659/2/6 660/2/6 664/2/6
f 664/2/6 660/2/6 665/2/6
f 661/2/6 631/2/6 666/2/6
f 628/2/6 662/2/6 667/2/6
f 665/2/6 666/2/6 670/2/6
f 666/2/6 631/2/6 671/2/6
f 670/2/6 666/2/6 671/2/6
f 667/2/6 668/2/6 672/2/6
f 628/2/6 667/2/6 672/2/6
f 672/2/6 668/2/6 673/2/6
f 669/2/6 670/2/6 678/2/6
f 678/2/6 670/2/6 679/2/6
f 671/2/6 631/2/6 680/2/6
f 628/2/6 672/2/6 681/2/6
f 673/2/6 674/2/6 682/2/6
f 682/2/6 674/2/6 683/2/6
f 675/2/6 676/2/6 684/2/6
f 684/2/6 676/2/6 685/2/6
f 677/2/6 678/2/6 686/2/6
f 686/2/6 678/2/6 687/2/6
f 679/2/6 680/2/6 688/2/6
f 686/2/6 687/2/6 689/2/6
f 687/2/6 688/2/6 689/2/6
f 682/2/6 683/2/6 689/2/6
f 628/2/6 681/2/6 689/2/6
f 685/2/6 686/2/6 689/2/6
f 684/2/6 685/2/6 689/2/6
f 683/2/6 684/2/6 689/2/6
f 681/2/6 682/2/6 689/2/6
f 688/2/6 680/2/6 690/2/6
f 689/2/6 688/2/6 690/2/6
f 680/2/6 631/2/6 690/2/6
